<svg 
 xmlns="http://www.w3.org/2000/svg"
 xmlns:xlink="http://www.w3.org/1999/xlink"
 width="1174px" height="53px">
<path fill-rule="evenodd"  fill="rgb(0, 0, 0)"
 d="M990.765,25.526 C989.333,27.547 988.028,29.464 986.852,31.278 C986.215,31.310 985.499,31.485 984.705,31.803 C983.909,32.121 983.241,32.535 982.701,33.044 L978.645,36.910 C978.103,37.420 977.666,38.072 977.332,38.867 C976.998,39.663 976.784,40.347 976.688,40.920 C974.843,42.034 972.886,43.267 970.819,44.619 C968.751,45.972 966.413,47.602 963.805,49.511 C965.840,47.029 967.574,44.778 969.006,42.757 C970.437,40.737 971.741,38.819 972.918,37.006 C973.555,36.974 974.270,36.799 975.066,36.481 C975.861,36.163 976.529,35.749 977.070,35.240 L981.460,31.039 C981.842,30.594 982.159,30.053 982.414,29.416 C982.764,28.621 982.987,27.937 983.082,27.364 C984.927,26.250 986.883,25.018 988.951,23.665 C991.019,22.313 993.357,20.682 995.966,18.772 C993.930,21.254 992.196,23.506 990.765,25.526 ZM949.442,26.600 C948.074,26.600 946.905,26.115 945.935,25.144 C944.964,24.174 944.479,23.005 944.479,21.636 C944.479,20.268 944.964,19.099 945.935,18.128 C946.905,17.158 948.074,16.672 949.442,16.672 C950.809,16.672 951.978,17.158 952.949,18.128 C953.919,19.099 954.404,20.268 954.404,21.636 C954.404,23.005 953.919,24.174 952.949,25.144 C951.978,26.115 950.809,26.600 949.442,26.600 ZM944.765,26.314 C946.037,27.587 947.596,28.223 949.442,28.223 C950.078,28.223 950.666,28.144 951.207,27.984 L943.334,37.769 C942.857,38.342 942.499,39.042 942.260,39.870 C942.022,40.697 941.886,41.397 941.855,41.970 C940.200,43.338 938.427,44.818 936.534,46.409 C934.641,48.000 932.518,49.925 930.164,52.184 C931.882,49.416 933.329,46.942 934.506,44.762 C935.683,42.583 936.749,40.522 937.703,38.581 C938.276,38.454 938.944,38.183 939.707,37.769 C940.471,37.356 941.091,36.879 941.568,36.337 L946.626,30.132 C945.290,29.719 944.113,29.003 943.095,27.984 C941.378,26.235 940.519,24.118 940.519,21.636 C940.519,21.445 940.519,21.271 940.519,21.111 L934.697,21.111 L932.073,24.357 C931.595,24.930 931.238,25.630 930.999,26.457 C930.760,27.285 930.625,27.984 930.593,28.557 C928.939,29.926 927.165,31.405 925.273,32.996 C923.380,34.588 921.257,36.513 918.903,38.772 C920.621,36.003 922.068,33.530 923.245,31.350 C924.422,29.170 925.488,27.110 926.442,25.168 C927.015,25.042 927.683,24.771 928.446,24.357 C929.210,23.944 929.830,23.467 930.307,22.925 L933.647,18.772 L943.477,18.772 C943.063,19.632 942.857,20.586 942.857,21.636 C942.857,23.482 943.493,25.042 944.765,26.314 ZM905.208,28.605 C904.571,28.637 903.856,28.812 903.061,29.130 C902.265,29.448 901.597,29.862 901.057,30.371 L890.416,40.681 C891.943,42.336 892.706,44.325 892.706,46.647 C892.706,48.207 892.356,49.623 891.656,50.895 L888.841,50.895 C889.859,49.718 890.368,48.302 890.368,46.647 C890.368,44.802 889.731,43.243 888.459,41.970 C887.982,41.492 887.457,41.095 886.885,40.776 L893.851,34.094 L889.986,30.371 C889.445,29.862 888.777,29.448 887.982,29.130 C887.187,28.812 886.471,28.637 885.835,28.605 C884.658,26.791 883.354,24.875 881.922,22.853 C880.491,20.833 878.756,18.582 876.721,16.099 C879.329,18.009 881.667,19.640 883.735,20.992 C885.803,22.345 887.759,23.578 889.604,24.691 C889.700,25.264 889.915,25.948 890.249,26.744 C890.583,27.539 891.020,28.192 891.561,28.700 L895.521,32.519 L899.482,28.700 C900.022,28.192 900.460,27.539 900.794,26.744 C901.128,25.948 901.343,25.264 901.438,24.691 C903.283,23.578 905.239,22.345 907.308,20.992 C909.375,19.640 911.713,18.009 914.322,16.099 C912.286,18.582 910.552,20.833 909.121,22.853 C907.689,24.875 906.384,26.791 905.208,28.605 ZM860.115,30.514 L860.115,32.758 C860.115,33.490 860.282,34.254 860.616,35.049 C860.950,35.844 861.308,36.481 861.690,36.958 C861.213,39.058 860.743,41.325 860.282,43.760 C859.821,46.194 859.383,49.018 858.970,52.232 C858.556,49.018 858.119,46.194 857.658,43.760 C857.196,41.325 856.743,39.058 856.298,36.958 C856.648,36.481 856.990,35.844 857.324,35.049 C857.658,34.254 857.825,33.490 857.825,32.758 L857.825,28.128 C858.207,28.192 858.588,28.223 858.970,28.223 C860.815,28.223 862.374,27.587 863.646,26.314 C864.918,25.042 865.555,23.482 865.555,21.636 C865.555,19.982 865.046,18.566 864.028,17.388 L866.843,17.388 C867.543,18.661 867.893,20.078 867.893,21.636 C867.893,24.118 867.034,26.219 865.316,27.937 C863.853,29.401 862.119,30.260 860.115,30.514 ZM858.970,26.600 C857.602,26.600 856.433,26.115 855.463,25.144 C854.492,24.174 854.008,23.005 854.008,21.636 C854.008,20.268 854.492,19.099 855.463,18.128 C856.433,17.158 857.602,16.672 858.970,16.672 C860.337,16.672 861.507,17.158 862.477,18.128 C863.447,19.099 863.933,20.268 863.933,21.636 C863.933,23.005 863.447,24.174 862.477,25.144 C861.507,26.115 860.337,26.600 858.970,26.600 ZM845.466,30.467 C845.530,30.848 845.657,31.230 845.848,31.612 C846.166,32.408 846.516,33.044 846.898,33.521 C846.421,35.622 845.951,37.889 845.490,40.323 C845.029,42.757 844.591,45.582 844.178,48.795 C843.764,45.582 843.326,42.757 842.866,40.323 C842.404,37.889 841.951,35.622 841.506,33.521 C841.855,33.044 842.198,32.408 842.532,31.612 C842.866,30.817 843.033,30.053 843.033,29.321 L843.033,28.128 C843.414,28.192 843.796,28.223 844.178,28.223 C846.022,28.223 847.581,27.587 848.854,26.314 C850.126,25.042 850.763,23.482 850.763,21.636 C850.763,19.982 850.254,18.566 849.236,17.388 L852.051,17.388 C852.751,18.661 853.101,20.078 853.101,21.636 C853.101,24.118 852.242,26.219 850.524,27.937 C849.093,29.369 847.406,30.212 845.466,30.467 ZM844.178,26.600 C842.810,26.600 841.641,26.115 840.671,25.144 C839.700,24.174 839.215,23.005 839.215,21.636 C839.215,20.268 839.700,19.099 840.671,18.128 C841.641,17.158 842.810,16.672 844.178,16.672 C845.545,16.672 846.714,17.158 847.685,18.128 C848.655,19.099 849.140,20.268 849.140,21.636 C849.140,23.005 848.655,24.174 847.685,25.144 C846.714,26.115 845.545,26.600 844.178,26.600 ZM605.852,31.278 C605.215,31.310 604.499,31.485 603.705,31.803 C602.909,32.121 602.241,32.535 601.700,33.044 L597.645,36.910 C597.103,37.420 596.666,38.072 596.332,38.867 C595.998,39.663 595.784,40.347 595.688,40.920 C593.843,42.034 591.886,43.267 589.819,44.619 C587.751,45.972 585.413,47.602 582.805,49.511 C584.840,47.029 586.574,44.778 588.006,42.757 C589.437,40.737 590.741,38.819 591.919,37.006 C592.554,36.974 593.270,36.799 594.066,36.481 C594.861,36.163 595.529,35.749 596.070,35.240 L600.460,31.039 C600.842,30.594 601.159,30.053 601.414,29.416 C601.764,28.621 601.987,27.937 602.082,27.364 C603.927,26.250 605.883,25.018 607.951,23.665 C610.019,22.313 612.357,20.682 614.966,18.772 C612.930,21.254 611.196,23.506 609.765,25.526 C608.333,27.547 607.028,29.464 605.852,31.278 ZM568.442,26.600 C567.074,26.600 565.904,26.115 564.935,25.144 C563.964,24.174 563.479,23.005 563.479,21.636 C563.479,20.268 563.964,19.099 564.935,18.128 C565.904,17.158 567.074,16.672 568.442,16.672 C569.809,16.672 570.978,17.158 571.949,18.128 C572.919,19.099 573.404,20.268 573.404,21.636 C573.404,23.005 572.919,24.174 571.949,25.144 C570.978,26.115 569.809,26.600 568.442,26.600 ZM563.765,26.314 C565.037,27.587 566.596,28.223 568.442,28.223 C569.078,28.223 569.666,28.144 570.207,27.984 L562.334,37.769 C561.857,38.342 561.499,39.042 561.260,39.870 C561.022,40.697 560.886,41.397 560.855,41.970 C559.200,43.338 557.427,44.818 555.534,46.409 C553.641,48.000 551.518,49.925 549.164,52.184 C550.882,49.416 552.329,46.942 553.506,44.762 C554.683,42.583 555.749,40.522 556.703,38.581 C557.276,38.454 557.944,38.183 558.707,37.769 C559.471,37.356 560.091,36.879 560.568,36.337 L565.626,30.132 C564.290,29.719 563.113,29.003 562.095,27.984 C560.377,26.235 559.519,24.118 559.519,21.636 C559.519,21.445 559.519,21.271 559.519,21.111 L553.697,21.111 L551.073,24.357 C550.596,24.930 550.238,25.630 549.999,26.457 C549.760,27.285 549.625,27.984 549.593,28.557 C547.939,29.926 546.165,31.405 544.273,32.996 C542.380,34.588 540.257,36.513 537.903,38.772 C539.621,36.003 541.068,33.530 542.245,31.350 C543.422,29.170 544.488,27.110 545.442,25.168 C546.015,25.042 546.683,24.771 547.446,24.357 C548.210,23.944 548.830,23.467 549.307,22.925 L552.647,18.772 L562.477,18.772 C562.063,19.632 561.857,20.586 561.857,21.636 C561.857,23.482 562.493,25.042 563.765,26.314 ZM519.341,23.211 C520.708,23.211 521.877,23.697 522.848,24.667 C523.818,25.638 524.303,26.808 524.303,28.175 C524.303,29.544 523.818,30.713 522.848,31.684 C521.877,32.655 520.708,33.139 519.341,33.139 C517.973,33.139 516.804,32.655 515.834,31.684 C514.863,30.713 514.378,29.544 514.378,28.175 C514.378,26.808 514.863,25.638 515.834,24.667 C516.804,23.697 517.973,23.211 519.341,23.211 ZM528.264,28.175 C528.264,30.657 527.397,32.766 525.663,34.500 C523.929,36.235 521.822,37.101 519.341,37.101 C517.400,37.101 515.682,36.576 514.187,35.526 L510.418,39.249 C509.908,39.758 509.487,40.411 509.153,41.206 C508.819,42.002 508.604,42.702 508.509,43.306 C506.696,44.452 504.755,45.709 502.688,47.077 C500.619,48.445 498.281,50.084 495.673,51.993 C497.709,49.480 499.435,47.213 500.850,45.192 C502.266,43.171 503.562,41.254 504.739,39.440 C505.343,39.377 506.043,39.186 506.839,38.867 C507.634,38.549 508.302,38.135 508.843,37.626 L514.235,32.376 C514.362,32.535 514.505,32.694 514.665,32.853 C515.936,34.126 517.495,34.762 519.341,34.762 C521.185,34.762 522.744,34.126 524.017,32.853 C525.289,31.581 525.926,30.021 525.926,28.175 C525.926,26.330 525.289,24.771 524.017,23.498 L523.635,23.164 L527.357,19.536 L513.758,19.536 L510.418,22.782 C509.908,23.291 509.487,23.944 509.153,24.739 C508.819,25.535 508.604,26.235 508.509,26.839 C506.696,27.984 504.755,29.242 502.688,30.610 C500.619,31.978 498.281,33.617 495.673,35.526 C497.709,33.013 499.435,30.745 500.850,28.724 C502.266,26.704 503.562,24.787 504.739,22.973 C505.343,22.909 506.043,22.718 506.839,22.400 C507.634,22.082 508.302,21.668 508.843,21.159 L512.899,17.197 L532.988,17.197 L526.785,23.211 C527.770,24.643 528.264,26.298 528.264,28.175 ZM479.545,27.316 C478.272,26.044 476.713,25.407 474.868,25.407 C473.023,25.407 471.464,26.044 470.192,27.316 C468.920,28.589 468.284,30.149 468.284,31.994 C468.284,33.840 468.920,35.399 470.192,36.672 C470.414,36.895 470.669,37.118 470.956,37.340 L468.522,39.583 C467.981,40.092 467.536,40.737 467.186,41.516 C466.836,42.296 466.613,42.988 466.518,43.593 C464.641,44.675 462.660,45.876 460.577,47.196 C458.493,48.517 456.131,50.116 453.491,51.993 C455.559,49.511 457.324,47.276 458.788,45.287 C460.251,43.299 461.603,41.413 462.844,39.631 C463.416,39.567 464.108,39.385 464.920,39.082 C465.731,38.780 466.406,38.390 466.947,37.913 L467.615,37.292 C466.502,35.765 465.945,33.999 465.945,31.994 C465.945,29.512 466.812,27.404 468.546,25.670 C470.279,23.936 472.387,23.068 474.868,23.068 C477.064,23.068 478.972,23.769 480.595,25.168 L484.937,21.111 L473.055,21.111 C472.323,21.111 471.560,21.271 470.765,21.589 C469.969,21.939 469.333,22.289 468.856,22.639 C466.757,22.193 464.482,21.740 462.033,21.278 C459.583,20.817 456.752,20.380 453.539,19.966 C456.752,19.520 459.583,19.067 462.033,18.605 C464.482,18.144 466.757,17.675 468.856,17.197 C469.333,17.579 469.969,17.937 470.765,18.271 C471.560,18.605 472.323,18.772 473.055,18.772 L490.806,18.772 L480.451,28.414 C480.196,28.032 479.894,27.667 479.545,27.316 ZM471.361,28.486 C472.331,27.515 473.500,27.030 474.868,27.030 C476.236,27.030 477.405,27.515 478.376,28.486 C479.346,29.457 479.831,30.626 479.831,31.994 C479.831,33.362 479.346,34.532 478.376,35.502 C477.405,36.473 476.236,36.958 474.868,36.958 C473.500,36.958 472.331,36.473 471.361,35.502 C470.391,34.532 469.906,33.362 469.906,31.994 C469.906,30.626 470.391,29.457 471.361,28.486 ZM883.783,41.683 C885.150,41.683 886.319,42.169 887.290,43.139 C888.260,44.110 888.746,45.280 888.746,46.647 C888.746,48.016 888.260,49.185 887.290,50.155 C886.319,51.126 885.150,51.611 883.783,51.611 C882.415,51.611 881.246,51.126 880.276,50.155 C879.305,49.185 878.820,48.016 878.820,46.647 C878.820,45.280 879.305,44.110 880.276,43.139 C881.246,42.169 882.415,41.683 883.783,41.683 Z"/>
<path fill-rule="evenodd"  fill="rgb(0, 0, 0)"
 d="M0.094,-0.000 L1173.737,-0.000 L1173.737,3.437 L0.094,3.437 L0.094,-0.000 Z"/>
</svg>