<svg 
 xmlns="http://www.w3.org/2000/svg"
 xmlns:xlink="http://www.w3.org/1999/xlink"
 width="1174px" height="53px">
<path fill-rule="evenodd"  fill="rgb(0, 0, 0)"
 d="M990.765,25.526 C989.333,27.547 988.028,29.464 986.852,31.278 C986.215,31.310 985.499,31.485 984.705,31.803 C983.909,32.121 983.241,32.535 982.701,33.044 L978.645,36.910 C978.103,37.420 977.666,38.072 977.332,38.867 C976.998,39.663 976.784,40.347 976.688,40.920 C974.843,42.034 972.886,43.267 970.819,44.619 C968.751,45.972 966.413,47.602 963.805,49.511 C965.840,47.029 967.574,44.778 969.006,42.757 C970.437,40.737 971.741,38.819 972.918,37.006 C973.555,36.974 974.270,36.799 975.066,36.481 C975.861,36.163 976.529,35.749 977.070,35.240 L981.460,31.039 C981.842,30.594 982.159,30.053 982.414,29.416 C982.764,28.621 982.987,27.937 983.082,27.364 C984.927,26.250 986.883,25.018 988.951,23.665 C991.019,22.313 993.357,20.682 995.966,18.772 C993.930,21.254 992.196,23.506 990.765,25.526 ZM944.765,41.874 C944.765,41.270 944.638,40.554 944.384,39.726 C944.129,38.899 943.779,38.199 943.334,37.626 L942.380,36.481 C941.743,36.799 941.027,36.958 940.232,36.958 C938.864,36.958 937.695,36.473 936.725,35.502 C935.754,34.532 935.270,33.362 935.270,31.994 C935.270,30.626 935.754,29.457 936.725,28.486 C937.695,27.515 938.864,27.030 940.232,27.030 C941.600,27.030 942.769,27.515 943.740,28.486 C944.709,29.457 945.195,30.626 945.195,31.994 C945.195,33.139 944.861,34.142 944.193,35.001 L945.100,36.147 C945.545,36.719 946.149,37.213 946.913,37.626 C947.676,38.040 948.344,38.311 948.917,38.438 C949.902,40.347 950.984,42.392 952.162,44.571 C953.338,46.751 954.786,49.225 956.504,51.993 C954.149,49.766 952.026,47.849 950.134,46.242 C948.241,44.635 946.451,43.179 944.765,41.874 ZM944.909,27.316 C943.636,26.044 942.077,25.407 940.232,25.407 C938.387,25.407 936.828,26.044 935.556,27.316 C934.283,28.589 933.647,30.149 933.647,31.994 C933.647,33.840 934.283,35.399 935.556,36.672 C935.778,36.895 936.033,37.118 936.320,37.340 L933.886,39.583 C933.345,40.092 932.900,40.737 932.550,41.516 C932.199,42.296 931.977,42.988 931.882,43.593 C930.005,44.675 928.024,45.876 925.941,47.196 C923.857,48.517 921.495,50.116 918.855,51.993 C920.923,49.511 922.688,47.276 924.152,45.287 C925.615,43.299 926.967,41.413 928.208,39.631 C928.780,39.567 929.472,39.385 930.283,39.082 C931.094,38.780 931.770,38.390 932.311,37.913 L932.979,37.292 C931.865,35.765 931.309,33.999 931.309,31.994 C931.309,29.512 932.176,27.404 933.910,25.670 C935.643,23.936 937.751,23.068 940.232,23.068 C942.427,23.068 944.336,23.769 945.958,25.168 L950.301,21.111 L938.419,21.111 C937.687,21.111 936.923,21.271 936.129,21.589 C935.333,21.939 934.697,22.289 934.220,22.639 C932.120,22.193 929.846,21.740 927.396,21.278 C924.946,20.817 922.115,20.380 918.903,19.966 C922.115,19.520 924.946,19.067 927.396,18.605 C929.846,18.144 932.120,17.675 934.220,17.197 C934.697,17.579 935.333,17.937 936.129,18.271 C936.923,18.605 937.687,18.772 938.419,18.772 L956.170,18.772 L945.815,28.414 C945.560,28.032 945.258,27.667 944.909,27.316 ZM903.586,20.634 C904.953,20.634 906.122,21.119 907.093,22.090 C908.063,23.061 908.548,24.230 908.548,25.598 C908.548,26.967 908.063,28.136 907.093,29.106 C906.122,30.077 904.953,30.562 903.586,30.562 C902.217,30.562 901.048,30.077 900.078,29.106 C899.108,28.136 898.623,26.967 898.623,25.598 C898.623,24.230 899.108,23.061 900.078,22.090 C901.048,21.119 902.217,20.634 903.586,20.634 ZM903.586,34.524 C901.613,34.524 899.879,33.983 898.384,32.901 L891.561,39.488 C891.052,39.997 890.622,40.650 890.273,41.445 C889.922,42.240 889.716,42.941 889.652,43.545 C887.807,44.659 885.850,45.900 883.783,47.268 C881.715,48.636 879.361,50.275 876.721,52.184 C878.788,49.671 880.538,47.403 881.970,45.382 C883.401,43.362 884.705,41.461 885.883,39.679 C886.486,39.583 887.187,39.385 887.982,39.082 C888.777,38.780 889.445,38.358 889.986,37.817 L898.384,29.703 C898.543,29.894 898.718,30.085 898.909,30.276 C900.181,31.549 901.740,32.185 903.586,32.185 C905.430,32.185 906.989,31.549 908.262,30.276 C909.534,29.003 910.171,27.444 910.171,25.598 C910.171,23.753 909.534,22.193 908.262,20.920 C906.989,19.648 905.430,19.011 903.586,19.011 C901.740,19.011 900.181,19.648 898.909,20.920 C897.637,22.193 897.001,23.753 897.001,25.598 C897.001,25.884 897.016,26.155 897.048,26.409 L896.237,26.409 C895.505,26.409 894.742,26.576 893.947,26.911 C893.151,27.245 892.515,27.587 892.038,27.937 C889.939,27.492 887.664,27.038 885.215,26.576 C882.764,26.115 879.934,25.678 876.721,25.264 C879.934,24.819 882.764,24.365 885.215,23.904 C887.664,23.443 889.939,22.973 892.038,22.495 C892.515,22.877 893.151,23.228 893.947,23.546 C894.233,23.673 894.519,23.784 894.806,23.880 C895.123,22.130 895.934,20.603 897.239,19.297 C898.988,17.548 901.104,16.672 903.586,16.672 C906.067,16.672 908.174,17.540 909.908,19.274 C911.642,21.008 912.509,23.116 912.509,25.598 C912.509,28.080 911.642,30.188 909.908,31.922 C908.174,33.657 906.067,34.524 903.586,34.524 ZM863.169,38.533 C863.487,38.915 863.805,39.265 864.124,39.583 C863.646,41.366 863.177,43.243 862.716,45.215 C862.254,47.189 861.817,49.607 861.404,52.470 C860.990,49.607 860.552,47.189 860.091,45.215 C859.630,43.243 859.177,41.366 858.732,39.583 C859.018,39.265 859.304,38.915 859.590,38.533 C857.873,38.279 856.377,37.610 855.105,36.528 C853.673,35.383 852.830,34.063 852.576,32.567 C852.290,32.599 852.019,32.662 851.765,32.758 C850.969,33.013 850.333,33.283 849.856,33.569 C847.757,33.187 845.482,32.822 843.033,32.471 C840.583,32.121 837.752,31.707 834.539,31.230 C837.752,30.753 840.583,30.332 843.033,29.965 C845.482,29.600 847.757,29.225 849.856,28.844 C850.333,29.130 850.969,29.409 851.765,29.679 C852.560,29.950 853.323,30.085 854.055,30.085 L854.914,30.085 C854.850,30.531 854.819,30.944 854.819,31.326 C854.819,32.726 855.455,33.927 856.727,34.929 C857.999,35.932 859.558,36.433 861.404,36.433 C863.248,36.433 864.807,35.932 866.080,34.929 C867.352,33.927 867.989,32.726 867.989,31.326 C867.989,30.944 867.957,30.531 867.893,30.085 L870.231,30.085 C870.295,30.531 870.327,30.944 870.327,31.326 C870.327,33.395 869.468,35.128 867.750,36.528 C866.445,37.610 864.918,38.279 863.169,38.533 ZM854.485,21.684 C854.008,21.334 853.371,21.024 852.576,20.753 C851.780,20.483 851.017,20.348 850.286,20.348 L837.020,20.348 L837.020,19.154 L837.020,17.961 L850.286,17.961 C851.017,17.961 851.780,17.826 852.576,17.555 C853.371,17.285 854.008,16.975 854.485,16.625 C856.584,17.070 858.858,17.516 861.308,17.961 C863.757,18.375 866.588,18.772 869.802,19.154 C866.588,19.536 863.757,19.934 861.308,20.348 C858.858,20.794 856.584,21.239 854.485,21.684 ZM854.485,16.195 C854.008,15.845 853.371,15.535 852.576,15.264 C851.780,14.994 851.017,14.859 850.286,14.859 L837.020,14.859 L837.020,13.665 L837.020,12.472 L850.286,12.472 C851.017,12.472 851.780,12.337 852.576,12.066 C853.371,11.796 854.008,11.486 854.485,11.136 C856.584,11.582 858.858,12.027 861.308,12.472 C863.757,12.886 866.588,13.283 869.802,13.665 C866.588,14.047 863.757,14.445 861.308,14.859 C858.858,15.304 856.584,15.750 854.485,16.195 ZM861.404,27.364 C862.771,27.364 863.940,27.754 864.911,28.533 C865.881,29.313 866.366,30.244 866.366,31.326 C866.366,32.440 865.881,33.378 864.911,34.142 C863.940,34.905 862.771,35.287 861.404,35.287 C860.036,35.287 858.866,34.905 857.896,34.142 C856.926,33.378 856.441,32.440 856.441,31.326 C856.441,30.244 856.926,29.313 857.896,28.533 C858.866,27.754 860.036,27.364 861.404,27.364 ZM851.765,27.006 C850.969,27.277 850.333,27.555 849.856,27.841 C847.757,27.459 845.482,27.094 843.033,26.744 C840.583,26.394 837.752,25.980 834.539,25.502 C837.752,25.025 840.583,24.596 843.033,24.214 C845.482,23.832 847.757,23.450 849.856,23.068 C850.333,23.355 850.969,23.641 851.765,23.927 C852.560,24.214 853.323,24.357 854.055,24.357 L869.659,24.357 L869.659,26.600 L854.055,26.600 C853.323,26.600 852.560,26.736 851.765,27.006 ZM605.852,31.278 C605.215,31.310 604.499,31.485 603.705,31.803 C602.909,32.121 602.241,32.535 601.700,33.044 L597.645,36.910 C597.103,37.420 596.666,38.072 596.332,38.867 C595.998,39.663 595.784,40.347 595.688,40.920 C593.843,42.034 591.886,43.267 589.819,44.619 C587.751,45.972 585.413,47.602 582.805,49.511 C584.840,47.029 586.574,44.778 588.006,42.757 C589.437,40.737 590.741,38.819 591.919,37.006 C592.554,36.974 593.270,36.799 594.066,36.481 C594.861,36.163 595.529,35.749 596.070,35.240 L600.460,31.039 C600.842,30.594 601.159,30.053 601.414,29.416 C601.764,28.621 601.987,27.937 602.082,27.364 C603.927,26.250 605.883,25.018 607.951,23.665 C610.019,22.313 612.357,20.682 614.966,18.772 C612.930,21.254 611.196,23.506 609.765,25.526 C608.333,27.547 607.028,29.464 605.852,31.278 ZM568.442,26.600 C567.074,26.600 565.904,26.115 564.935,25.144 C563.964,24.174 563.479,23.005 563.479,21.636 C563.479,20.268 563.964,19.099 564.935,18.128 C565.904,17.158 567.074,16.672 568.442,16.672 C569.809,16.672 570.978,17.158 571.949,18.128 C572.919,19.099 573.404,20.268 573.404,21.636 C573.404,23.005 572.919,24.174 571.949,25.144 C570.978,26.115 569.809,26.600 568.442,26.600 ZM563.765,26.314 C565.037,27.587 566.596,28.223 568.442,28.223 C569.078,28.223 569.666,28.144 570.207,27.984 L562.334,37.769 C561.857,38.342 561.499,39.042 561.260,39.870 C561.022,40.697 560.886,41.397 560.855,41.970 C559.200,43.338 557.427,44.818 555.534,46.409 C553.641,48.000 551.518,49.925 549.164,52.184 C550.882,49.416 552.329,46.942 553.506,44.762 C554.683,42.583 555.749,40.522 556.703,38.581 C557.276,38.454 557.944,38.183 558.707,37.769 C559.471,37.356 560.091,36.879 560.568,36.337 L565.626,30.132 C564.290,29.719 563.113,29.003 562.095,27.984 C560.377,26.235 559.519,24.118 559.519,21.636 C559.519,21.445 559.519,21.271 559.519,21.111 L553.697,21.111 L551.073,24.357 C550.596,24.930 550.238,25.630 549.999,26.457 C549.760,27.285 549.625,27.984 549.593,28.557 C547.939,29.926 546.165,31.405 544.273,32.996 C542.380,34.588 540.257,36.513 537.903,38.772 C539.621,36.003 541.068,33.530 542.245,31.350 C543.422,29.170 544.488,27.110 545.442,25.168 C546.015,25.042 546.683,24.771 547.446,24.357 C548.210,23.944 548.830,23.467 549.307,22.925 L552.647,18.772 L562.477,18.772 C562.063,19.632 561.857,20.586 561.857,21.636 C561.857,23.482 562.493,25.042 563.765,26.314 ZM519.341,23.211 C520.708,23.211 521.877,23.697 522.848,24.667 C523.818,25.638 524.303,26.808 524.303,28.175 C524.303,29.544 523.818,30.713 522.848,31.684 C521.877,32.655 520.708,33.139 519.341,33.139 C517.973,33.139 516.804,32.655 515.834,31.684 C514.863,30.713 514.378,29.544 514.378,28.175 C514.378,26.808 514.863,25.638 515.834,24.667 C516.804,23.697 517.973,23.211 519.341,23.211 ZM528.264,28.175 C528.264,30.657 527.397,32.766 525.663,34.500 C523.929,36.235 521.822,37.101 519.341,37.101 C517.400,37.101 515.682,36.576 514.187,35.526 L510.418,39.249 C509.908,39.758 509.487,40.411 509.153,41.206 C508.819,42.002 508.604,42.702 508.509,43.306 C506.696,44.452 504.755,45.709 502.688,47.077 C500.619,48.445 498.281,50.084 495.673,51.993 C497.709,49.480 499.435,47.213 500.850,45.192 C502.266,43.171 503.562,41.254 504.739,39.440 C505.343,39.377 506.043,39.186 506.839,38.867 C507.634,38.549 508.302,38.135 508.843,37.626 L514.235,32.376 C514.362,32.535 514.505,32.694 514.665,32.853 C515.936,34.126 517.495,34.762 519.341,34.762 C521.185,34.762 522.744,34.126 524.017,32.853 C525.289,31.581 525.926,30.021 525.926,28.175 C525.926,26.330 525.289,24.771 524.017,23.498 L523.635,23.164 L527.357,19.536 L513.758,19.536 L510.418,22.782 C509.908,23.291 509.487,23.944 509.153,24.739 C508.819,25.535 508.604,26.235 508.509,26.839 C506.696,27.984 504.755,29.242 502.688,30.610 C500.619,31.978 498.281,33.617 495.673,35.526 C497.709,33.013 499.435,30.745 500.850,28.724 C502.266,26.704 503.562,24.787 504.739,22.973 C505.343,22.909 506.043,22.718 506.839,22.400 C507.634,22.082 508.302,21.668 508.843,21.159 L512.899,17.197 L532.988,17.197 L526.785,23.211 C527.770,24.643 528.264,26.298 528.264,28.175 ZM479.545,27.316 C478.272,26.044 476.713,25.407 474.868,25.407 C473.023,25.407 471.464,26.044 470.192,27.316 C468.920,28.589 468.284,30.149 468.284,31.994 C468.284,33.840 468.920,35.399 470.192,36.672 C470.414,36.895 470.669,37.118 470.956,37.340 L468.522,39.583 C467.981,40.092 467.536,40.737 467.186,41.516 C466.836,42.296 466.613,42.988 466.518,43.593 C464.641,44.675 462.660,45.876 460.577,47.196 C458.493,48.517 456.131,50.116 453.491,51.993 C455.559,49.511 457.324,47.276 458.788,45.287 C460.251,43.299 461.603,41.413 462.844,39.631 C463.416,39.567 464.108,39.385 464.920,39.082 C465.731,38.780 466.406,38.390 466.947,37.913 L467.615,37.292 C466.502,35.765 465.945,33.999 465.945,31.994 C465.945,29.512 466.812,27.404 468.546,25.670 C470.279,23.936 472.387,23.068 474.868,23.068 C477.064,23.068 478.972,23.769 480.595,25.168 L484.937,21.111 L473.055,21.111 C472.323,21.111 471.560,21.271 470.765,21.589 C469.969,21.939 469.333,22.289 468.856,22.639 C466.757,22.193 464.482,21.740 462.033,21.278 C459.583,20.817 456.752,20.380 453.539,19.966 C456.752,19.520 459.583,19.067 462.033,18.605 C464.482,18.144 466.757,17.675 468.856,17.197 C469.333,17.579 469.969,17.937 470.765,18.271 C471.560,18.605 472.323,18.772 473.055,18.772 L490.806,18.772 L480.451,28.414 C480.196,28.032 479.894,27.667 479.545,27.316 ZM471.361,28.486 C472.331,27.515 473.500,27.030 474.868,27.030 C476.236,27.030 477.405,27.515 478.376,28.486 C479.346,29.457 479.831,30.626 479.831,31.994 C479.831,33.362 479.346,34.532 478.376,35.502 C477.405,36.473 476.236,36.958 474.868,36.958 C473.500,36.958 472.331,36.473 471.361,35.502 C470.391,34.532 469.906,33.362 469.906,31.994 C469.906,30.626 470.391,29.457 471.361,28.486 Z"/>
<path fill-rule="evenodd"  fill="rgb(0, 0, 0)"
 d="M0.094,-0.000 L1173.737,-0.000 L1173.737,3.437 L0.094,3.437 L0.094,-0.000 Z"/>
</svg>