<svg 
 xmlns="http://www.w3.org/2000/svg"
 xmlns:xlink="http://www.w3.org/1999/xlink"
 width="1174px" height="52px">
<path fill-rule="evenodd"  fill="rgb(0, 0, 0)"
 d="M0.094,3.437 L0.094,-0.000 L1173.737,-0.000 L1173.737,3.437 L0.094,3.437 ZM645.548,15.295 L650.222,15.295 L661.477,47.654 L665.413,51.591 L649.791,51.591 L653.604,47.715 L651.575,41.563 L640.689,41.563 L638.537,47.715 L642.350,51.591 L630.050,51.591 L633.986,47.654 L645.548,15.295 ZM650.222,37.872 L646.224,25.876 L641.981,37.872 L650.222,37.872 ZM669.161,19.047 L664.241,23.969 L664.241,15.295 L691.793,15.295 L691.793,23.969 L686.873,19.047 L681.769,19.047 L681.769,47.715 L685.705,51.591 L670.330,51.591 L674.204,47.715 L674.204,19.047 L669.161,19.047 ZM696.092,15.295 L711.468,15.295 L707.532,19.170 L707.532,31.659 L720.385,18.801 L716.818,15.295 L728.873,15.295 L714.543,29.629 L730.533,51.591 L718.417,51.591 L718.417,47.838 L707.532,32.705 L707.532,47.715 L711.468,51.591 L696.092,51.591 L699.967,47.715 L699.967,19.170 L696.092,15.295 ZM760.072,12.880 L744.115,51.590 L738.662,51.590 L754.618,12.880 L760.072,12.880 ZM924.240,45.604 L952.160,45.604 L952.160,51.750 L914.605,51.750 L914.605,15.756 L924.240,15.756 L924.240,45.604 ZM971.601,51.750 L961.966,51.750 L961.966,15.756 L971.601,15.756 L971.601,51.750 ZM1014.979,39.591 L1014.979,15.756 L1023.914,15.756 L1023.914,51.750 L1013.152,51.750 L993.748,29.249 L993.748,51.750 L984.970,51.750 L984.970,15.756 L994.410,15.756 L1014.979,39.591 ZM1043.852,32.580 L1061.735,15.756 L1072.291,15.756 L1054.279,32.726 L1074.368,51.750 L1061.659,51.750 L1043.852,32.970 L1043.852,51.750 L1034.512,51.750 L1034.512,15.756 L1043.852,15.756 L1043.852,32.580 ZM1112.457,35.656 L1088.301,35.656 L1088.301,32.187 L1112.457,32.187 L1112.457,35.656 Z"/>
</svg>