<svg 
 xmlns="http://www.w3.org/2000/svg"
 xmlns:xlink="http://www.w3.org/1999/xlink"
 width="1174px" height="52px">
<path fill-rule="evenodd"  fill="rgb(0, 0, 0)"
 d="M0.094,3.437 L0.094,-0.000 L1173.737,-0.000 L1173.737,3.437 L0.094,3.437 ZM645.548,15.295 L650.222,15.295 L661.477,47.654 L665.413,51.591 L649.791,51.591 L653.604,47.715 L651.575,41.563 L640.689,41.563 L638.537,47.715 L642.350,51.591 L630.050,51.591 L633.986,47.654 L645.548,15.295 ZM650.222,37.872 L646.224,25.876 L641.981,37.872 L650.222,37.872 ZM669.161,19.047 L664.241,23.969 L664.241,15.295 L691.793,15.295 L691.793,23.969 L686.873,19.047 L681.769,19.047 L681.769,47.715 L685.705,51.591 L670.330,51.591 L674.204,47.715 L674.204,19.047 L669.161,19.047 ZM696.092,15.295 L711.468,15.295 L707.532,19.170 L707.532,31.659 L720.385,18.801 L716.818,15.295 L728.873,15.295 L714.543,29.629 L730.533,51.591 L718.417,51.591 L718.417,47.838 L707.532,32.705 L707.532,47.715 L711.468,51.591 L696.092,51.591 L699.967,47.715 L699.967,19.170 L696.092,15.295 ZM760.072,12.880 L744.115,51.590 L738.662,51.590 L754.618,12.880 L760.072,12.880 ZM920.884,15.303 L937.547,15.303 C939.884,15.303 942.076,15.785 944.127,16.748 C946.176,17.712 947.948,19.045 949.445,20.746 C950.941,22.448 952.099,24.396 952.919,26.589 C953.739,28.783 954.149,31.069 954.149,33.447 C954.149,35.825 953.739,38.112 952.919,40.304 C952.099,42.499 950.941,44.447 949.445,46.148 C947.948,47.849 946.176,49.183 944.127,50.145 C942.076,51.109 939.884,51.591 937.547,51.591 L920.884,51.591 L924.758,47.716 L924.758,19.177 L920.884,15.303 ZM932.321,47.839 L936.256,47.839 C937.814,47.839 939.166,47.430 940.314,46.609 C941.462,45.789 942.405,44.671 943.143,43.257 C943.881,41.842 944.413,40.295 944.742,38.613 C945.069,36.932 945.233,35.210 945.233,33.447 C945.233,31.684 945.069,29.952 944.742,28.249 C944.413,26.548 943.881,25.000 943.143,23.606 C942.405,22.212 941.462,21.105 940.314,20.285 C939.166,19.465 937.814,19.054 936.256,19.054 L932.321,19.054 L932.321,47.839 ZM958.933,15.303 L984.512,15.303 L984.512,23.975 L979.593,19.054 L970.370,19.054 L970.370,30.433 L976.765,30.433 L980.638,26.496 L980.638,38.060 L976.765,34.185 L970.370,34.185 L970.370,47.839 L979.593,47.839 L984.512,42.919 L984.512,51.591 L958.933,51.591 L962.807,47.716 L962.807,19.177 L958.933,15.303 ZM989.168,15.303 L1014.747,15.303 L1014.747,23.975 L1009.828,19.054 L1000.605,19.054 L1000.605,30.433 L1007.000,30.433 L1010.873,26.496 L1010.873,38.060 L1007.000,34.185 L1000.605,34.185 L1000.605,47.716 L1004.540,51.591 L989.168,51.591 L993.042,47.716 L993.042,19.177 L989.168,15.303 ZM1043.072,12.880 L1027.116,51.590 L1021.662,51.590 L1037.618,12.880 L1043.072,12.880 Z"/>
</svg>