<svg 
 xmlns="http://www.w3.org/2000/svg"
 xmlns:xlink="http://www.w3.org/1999/xlink"
 width="651px" height="35px">
<path fill-rule="evenodd"  fill="rgb(4, 0, 0)"
 d="M647.909,25.791 C647.926,26.206 648.002,26.517 648.136,26.724 C648.270,26.932 648.493,27.070 648.805,27.139 C649.117,27.208 649.576,27.290 650.183,27.381 L650.183,28.280 L642.986,28.280 L642.986,27.381 C643.592,27.290 644.052,27.208 644.364,27.139 C644.676,27.070 644.899,26.932 645.033,26.724 C645.167,26.517 645.242,26.206 645.260,25.791 C645.278,25.376 645.287,24.766 645.287,23.959 L645.287,8.401 C645.287,7.595 645.278,6.984 645.260,6.569 C645.242,6.154 645.167,5.843 645.033,5.636 C644.899,5.428 644.676,5.290 644.364,5.221 C644.052,5.151 643.592,5.071 642.986,4.979 L642.986,4.080 L650.183,4.080 L650.183,4.979 C649.576,5.071 649.117,5.151 648.805,5.221 C648.493,5.290 648.270,5.428 648.136,5.636 C648.002,5.843 647.926,6.154 647.909,6.569 C647.891,6.984 647.882,7.595 647.882,8.401 L647.882,23.959 C647.882,24.766 647.891,25.376 647.909,25.791 ZM639.094,5.929 C638.692,6.563 638.492,7.433 638.492,8.540 L638.492,23.959 C638.492,24.766 638.501,25.376 638.519,25.791 C638.536,26.206 638.612,26.517 638.746,26.724 C638.880,26.932 639.103,27.070 639.415,27.139 C639.727,27.208 640.186,27.290 640.793,27.381 L640.793,28.280 L633.596,28.280 L633.596,27.381 C634.202,27.290 634.662,27.208 634.974,27.139 C635.286,27.070 635.509,26.932 635.643,26.724 C635.776,26.517 635.852,26.206 635.870,25.791 C635.888,25.376 635.897,24.766 635.897,23.959 L635.897,9.438 L635.843,9.438 L628.567,28.488 L628.139,28.488 L620.915,9.611 L620.862,9.611 L620.862,23.613 C620.862,23.982 620.875,24.316 620.902,24.616 C620.929,24.915 620.960,25.203 620.996,25.480 C621.067,26.102 621.312,26.552 621.731,26.828 C622.150,27.105 622.672,27.290 623.296,27.381 L623.296,28.280 L617.277,28.280 L617.277,27.381 C617.901,27.290 618.423,27.105 618.842,26.828 C619.261,26.552 619.506,26.102 619.578,25.480 C619.613,25.203 619.649,24.915 619.685,24.616 C619.720,24.316 619.738,23.982 619.738,23.613 L619.738,7.952 C619.595,7.537 619.417,7.151 619.203,6.794 C618.989,6.437 618.739,6.125 618.454,5.860 C618.169,5.596 617.870,5.382 617.558,5.221 C617.246,5.060 616.929,4.979 616.608,4.979 L616.608,4.080 L621.664,4.080 L629.128,23.406 L636.833,4.080 L641.167,4.080 L641.167,4.979 C640.186,4.979 639.495,5.296 639.094,5.929 ZM609.546,27.381 C610.384,27.381 610.883,27.128 611.044,26.621 C611.204,26.114 611.178,25.480 610.964,24.719 L609.813,20.260 L602.991,20.260 L601.761,24.892 C601.582,25.561 601.613,26.143 601.854,26.638 C602.095,27.134 602.510,27.381 603.098,27.381 L603.098,28.280 L598.229,28.280 L598.229,27.381 C598.586,27.381 598.942,27.238 599.299,26.949 C599.656,26.661 599.941,26.229 600.155,25.653 C600.352,25.146 600.597,24.425 600.891,23.492 C601.185,22.559 601.511,21.493 601.868,20.294 C602.224,19.096 602.603,17.794 603.005,16.387 C603.406,14.982 603.816,13.547 604.235,12.083 C604.654,10.620 605.069,9.168 605.479,7.727 C605.889,6.287 606.282,4.933 606.656,3.665 L608.154,3.665 C608.458,4.818 608.783,6.062 609.131,7.399 C609.479,8.736 609.827,10.084 610.174,11.444 C610.522,12.804 610.870,14.140 611.218,15.454 C611.565,16.768 611.891,18.001 612.194,19.153 C612.497,20.306 612.773,21.331 613.024,22.230 C613.273,23.129 613.469,23.832 613.612,24.339 C613.897,25.307 614.187,26.056 614.482,26.586 C614.776,27.117 615.208,27.381 615.779,27.381 L615.779,28.280 L609.546,28.280 L609.546,27.381 ZM606.630,7.710 L606.576,7.710 L603.392,18.946 L609.465,18.946 L606.630,7.710 ZM595.180,6.880 C595.144,7.157 595.108,7.445 595.073,7.744 C595.037,8.044 595.019,8.378 595.019,8.747 L595.019,28.280 L594.109,28.280 C591.969,25.008 589.811,21.700 587.635,18.358 C585.459,15.017 583.275,11.674 581.081,8.332 L581.081,23.613 C581.081,23.982 581.099,24.316 581.134,24.616 C581.170,24.915 581.206,25.203 581.241,25.480 C581.313,26.102 581.576,26.552 582.031,26.828 C582.486,27.105 583.158,27.290 584.050,27.381 L584.050,28.280 L577.496,28.280 L577.496,27.381 C578.138,27.290 578.664,27.105 579.074,26.828 C579.484,26.552 579.725,26.102 579.797,25.480 C579.832,25.203 579.868,24.915 579.904,24.616 C579.939,24.316 579.957,23.982 579.957,23.613 L579.957,7.330 C579.583,6.707 579.164,6.160 578.700,5.687 C578.236,5.215 577.621,4.979 576.854,4.979 L576.854,4.080 L581.723,4.080 C583.720,7.238 585.740,10.384 587.783,13.518 C589.824,16.653 591.844,19.799 593.842,22.956 L593.895,22.956 L593.895,8.747 C593.895,8.378 593.878,8.044 593.842,7.744 C593.806,7.445 593.770,7.157 593.735,6.880 C593.664,6.258 593.401,5.808 592.946,5.532 C592.491,5.255 591.818,5.071 590.926,4.979 L590.926,4.080 L597.480,4.080 L597.480,4.979 C596.856,5.071 596.334,5.255 595.915,5.532 C595.496,5.808 595.251,6.258 595.180,6.880 ZM572.427,24.823 C571.526,26.022 570.456,26.967 569.216,27.658 C567.977,28.349 566.617,28.695 565.137,28.695 C563.852,28.695 562.657,28.384 561.552,27.762 C560.446,27.139 559.487,26.281 558.676,25.186 C557.864,24.092 557.222,22.812 556.750,21.349 C556.277,19.885 556.041,18.312 556.041,16.629 C556.041,14.763 556.304,13.040 556.830,11.461 C557.356,9.882 558.074,8.511 558.983,7.347 C559.893,6.183 560.959,5.278 562.180,4.633 C563.402,3.988 564.709,3.665 566.100,3.665 C567.544,3.665 568.837,4.028 569.979,4.754 C571.120,5.480 572.083,6.413 572.868,7.554 C573.653,8.695 574.250,9.963 574.661,11.357 C575.071,12.752 575.276,14.118 575.276,15.454 C575.276,17.275 575.026,18.992 574.527,20.605 C574.027,22.219 573.327,23.625 572.427,24.823 ZM571.638,11.184 C571.245,9.721 570.732,8.522 570.099,7.589 C569.466,6.655 568.748,5.970 567.946,5.532 C567.143,5.094 566.331,4.875 565.511,4.875 C564.370,4.875 563.393,5.175 562.582,5.774 C561.770,6.373 561.106,7.145 560.589,8.090 C560.071,9.035 559.692,10.101 559.452,11.288 C559.211,12.475 559.091,13.656 559.091,14.832 C559.091,16.929 559.282,18.767 559.666,20.346 C560.049,21.925 560.553,23.245 561.177,24.304 C561.801,25.365 562.524,26.160 563.344,26.690 C564.164,27.220 565.003,27.485 565.859,27.485 C567.107,27.485 568.142,27.128 568.962,26.413 C569.782,25.699 570.434,24.800 570.915,23.717 C571.397,22.634 571.735,21.447 571.932,20.156 C572.128,18.865 572.226,17.644 572.226,16.491 C572.226,14.417 572.030,12.648 571.638,11.184 ZM551.198,28.056 C550.984,27.906 550.775,27.704 550.570,27.450 C550.365,27.197 550.150,26.886 549.928,26.517 C549.704,26.149 549.460,25.745 549.192,25.307 L543.440,16.111 L542.852,16.111 L542.852,23.959 C542.852,24.766 542.860,25.376 542.878,25.791 C542.896,26.206 542.972,26.517 543.106,26.724 C543.239,26.932 543.462,27.070 543.775,27.139 C544.086,27.208 544.546,27.290 545.152,27.381 L545.152,28.280 L537.956,28.280 L537.956,27.381 C538.562,27.290 539.021,27.208 539.334,27.139 C539.645,27.070 539.869,26.932 540.002,26.724 C540.136,26.517 540.212,26.206 540.230,25.791 C540.247,25.376 540.257,24.766 540.257,23.959 L540.257,8.401 C540.257,7.595 540.247,6.984 540.230,6.569 C540.212,6.154 540.136,5.843 540.002,5.636 C539.869,5.428 539.645,5.290 539.334,5.221 C539.021,5.151 538.562,5.071 537.956,4.979 L537.956,4.080 L545.152,4.080 L545.152,4.979 C544.546,5.071 544.086,5.151 543.775,5.221 C543.462,5.290 543.239,5.428 543.106,5.636 C542.972,5.843 542.896,6.154 542.878,6.569 C542.860,6.984 542.852,7.595 542.852,8.401 L542.852,15.247 C543.262,15.201 543.614,15.068 543.908,14.849 C544.203,14.630 544.519,14.302 544.858,13.864 L550.316,6.776 C550.601,6.385 550.734,6.068 550.717,5.826 C550.699,5.584 550.592,5.400 550.396,5.273 C550.199,5.146 549.954,5.065 549.660,5.030 C549.366,4.996 549.103,4.979 548.871,4.979 L548.871,4.080 L553.820,4.080 L553.820,4.979 C553.428,5.186 552.986,5.590 552.496,6.189 C552.005,6.788 551.484,7.445 550.931,8.159 L545.420,15.281 C546.115,16.249 546.869,17.350 547.680,18.583 C548.492,19.816 549.312,21.032 550.142,22.230 C550.971,23.429 551.782,24.529 552.576,25.532 C553.370,26.534 554.088,27.278 554.730,27.762 L554.730,28.280 L551.921,28.280 C551.653,28.280 551.412,28.206 551.198,28.056 ZM533.167,30.268 C532.793,31.086 532.405,31.893 532.004,32.688 C531.602,33.483 531.277,34.111 531.027,34.572 L530.144,33.466 C530.715,32.567 531.121,31.737 531.362,30.977 C531.602,30.216 531.749,29.525 531.803,28.902 C531.856,28.280 531.852,27.716 531.790,27.208 C531.727,26.702 531.678,26.252 531.643,25.860 C531.624,25.722 531.696,25.538 531.856,25.307 C532.017,25.077 532.204,24.840 532.418,24.598 C532.632,24.356 532.833,24.149 533.020,23.976 C533.208,23.803 533.328,23.717 533.381,23.717 C533.488,23.717 533.609,23.815 533.743,24.010 C533.876,24.207 534.006,24.454 534.131,24.754 C534.255,25.054 534.358,25.365 534.438,25.687 C534.518,26.010 534.559,26.298 534.559,26.552 C534.559,26.828 534.420,27.312 534.144,28.004 C533.867,28.695 533.542,29.450 533.167,30.268 ZM525.075,24.823 C524.174,26.022 523.104,26.967 521.865,27.658 C520.625,28.349 519.265,28.695 517.785,28.695 C516.501,28.695 515.306,28.384 514.200,27.762 C513.094,27.139 512.135,26.281 511.324,25.186 C510.512,24.092 509.870,22.812 509.398,21.349 C508.925,19.885 508.689,18.312 508.689,16.629 C508.689,14.763 508.952,13.040 509.478,11.461 C510.004,9.882 510.722,8.511 511.632,7.347 C512.541,6.183 513.607,5.278 514.829,4.633 C516.050,3.988 517.357,3.665 518.748,3.665 C520.193,3.665 521.486,4.028 522.627,4.754 C523.768,5.480 524.732,6.413 525.516,7.554 C526.301,8.695 526.898,9.963 527.309,11.357 C527.719,12.752 527.924,14.118 527.924,15.454 C527.924,17.275 527.674,18.992 527.175,20.605 C526.676,22.219 525.975,23.625 525.075,24.823 ZM524.286,11.184 C523.893,9.721 523.380,8.522 522.748,7.589 C522.114,6.655 521.397,5.970 520.594,5.532 C519.791,5.094 518.980,4.875 518.160,4.875 C517.018,4.875 516.041,5.175 515.230,5.774 C514.418,6.373 513.754,7.145 513.237,8.090 C512.719,9.035 512.341,10.101 512.100,11.288 C511.859,12.475 511.739,13.656 511.739,14.832 C511.739,16.929 511.930,18.767 512.314,20.346 C512.697,21.925 513.201,23.245 513.826,24.304 C514.450,25.365 515.172,26.160 515.992,26.690 C516.813,27.220 517.651,27.485 518.507,27.485 C519.755,27.485 520.790,27.128 521.611,26.413 C522.431,25.699 523.082,24.800 523.564,23.717 C524.045,22.634 524.384,21.447 524.580,20.156 C524.776,18.865 524.875,17.644 524.875,16.491 C524.875,14.417 524.678,12.648 524.286,11.184 ZM505.920,5.411 C505.555,5.699 505.193,6.258 504.837,7.088 L500.369,17.563 C500.226,17.909 500.137,18.306 500.102,18.756 C500.066,19.205 500.048,19.649 500.048,20.087 L500.048,23.959 C500.048,24.766 500.057,25.376 500.075,25.791 C500.092,26.206 500.168,26.517 500.302,26.724 C500.436,26.932 500.659,27.070 500.971,27.139 C501.283,27.208 501.742,27.290 502.349,27.381 L502.349,28.280 L495.152,28.280 L495.152,27.381 C495.758,27.290 496.218,27.208 496.530,27.139 C496.842,27.070 497.065,26.932 497.199,26.724 C497.333,26.517 497.408,26.206 497.426,25.791 C497.444,25.376 497.453,24.766 497.453,23.959 L497.453,18.635 L493.333,8.090 C492.887,6.961 492.455,6.160 492.036,5.687 C491.616,5.215 491.095,4.979 490.471,4.979 L490.471,4.080 L497.293,4.080 L497.293,4.979 C496.775,4.979 496.396,5.060 496.156,5.221 C495.915,5.382 495.763,5.601 495.701,5.877 C495.638,6.154 495.651,6.482 495.741,6.863 C495.830,7.243 495.955,7.653 496.115,8.090 L499.353,16.768 L503.044,8.090 C503.276,7.560 503.401,7.099 503.419,6.707 C503.437,6.316 503.370,5.993 503.218,5.739 C503.067,5.486 502.844,5.296 502.550,5.169 C502.255,5.042 501.912,4.979 501.519,4.979 L501.519,4.080 L507.031,4.080 L507.031,4.979 C506.656,4.979 506.286,5.123 505.920,5.411 ZM486.538,28.056 C486.324,27.906 486.114,27.704 485.909,27.450 C485.704,27.197 485.490,26.886 485.267,26.517 C485.044,26.149 484.799,25.745 484.532,25.307 L478.780,16.111 L478.191,16.111 L478.191,23.959 C478.191,24.766 478.200,25.376 478.218,25.791 C478.235,26.206 478.312,26.517 478.445,26.724 C478.579,26.932 478.802,27.070 479.114,27.139 C479.426,27.208 479.885,27.290 480.492,27.381 L480.492,28.280 L473.295,28.280 L473.295,27.381 C473.902,27.290 474.361,27.208 474.673,27.139 C474.985,27.070 475.208,26.932 475.342,26.724 C475.476,26.517 475.551,26.206 475.569,25.791 C475.587,25.376 475.596,24.766 475.596,23.959 L475.596,8.401 C475.596,7.595 475.587,6.984 475.569,6.569 C475.551,6.154 475.476,5.843 475.342,5.636 C475.208,5.428 474.985,5.290 474.673,5.221 C474.361,5.151 473.902,5.071 473.295,4.979 L473.295,4.080 L480.492,4.080 L480.492,4.979 C479.885,5.071 479.426,5.151 479.114,5.221 C478.802,5.290 478.579,5.428 478.445,5.636 C478.312,5.843 478.235,6.154 478.218,6.569 C478.200,6.984 478.191,7.595 478.191,8.401 L478.191,15.247 C478.601,15.201 478.954,15.068 479.248,14.849 C479.542,14.630 479.859,14.302 480.198,13.864 L485.655,6.776 C485.940,6.385 486.074,6.068 486.056,5.826 C486.038,5.584 485.931,5.400 485.735,5.273 C485.539,5.146 485.294,5.065 485.000,5.030 C484.705,4.996 484.442,4.979 484.211,4.979 L484.211,4.080 L489.160,4.080 L489.160,4.979 C488.767,5.186 488.326,5.590 487.836,6.189 C487.345,6.788 486.823,7.445 486.270,8.159 L480.759,15.281 C481.455,16.249 482.208,17.350 483.020,18.583 C483.831,19.816 484.652,21.032 485.481,22.230 C486.311,23.429 487.122,24.529 487.916,25.532 C488.709,26.534 489.427,27.278 490.069,27.762 L490.069,28.280 L487.260,28.280 C486.993,28.280 486.752,28.206 486.538,28.056 ZM468.092,24.823 C467.191,26.022 466.121,26.967 464.882,27.658 C463.642,28.349 462.282,28.695 460.802,28.695 C459.518,28.695 458.323,28.384 457.217,27.762 C456.111,27.139 455.153,26.281 454.341,25.186 C453.530,24.092 452.888,22.812 452.415,21.349 C451.942,19.885 451.706,18.312 451.706,16.629 C451.706,14.763 451.969,13.040 452.495,11.461 C453.021,9.882 453.739,8.511 454.649,7.347 C455.559,6.183 456.624,5.278 457.846,4.633 C459.067,3.988 460.374,3.665 461.765,3.665 C463.210,3.665 464.503,4.028 465.644,4.754 C466.786,5.480 467.749,6.413 468.534,7.554 C469.318,8.695 469.916,9.963 470.326,11.357 C470.736,12.752 470.942,14.118 470.942,15.454 C470.942,17.275 470.692,18.992 470.192,20.605 C469.693,22.219 468.993,23.625 468.092,24.823 ZM467.303,11.184 C466.911,9.721 466.398,8.522 465.765,7.589 C465.132,6.655 464.414,5.970 463.611,5.532 C462.809,5.094 461.997,4.875 461.177,4.875 C460.035,4.875 459.059,5.175 458.247,5.774 C457.436,6.373 456.771,7.145 456.254,8.090 C455.737,9.035 455.358,10.101 455.117,11.288 C454.876,12.475 454.756,13.656 454.756,14.832 C454.756,16.929 454.947,18.767 455.331,20.346 C455.715,21.925 456.218,23.245 456.843,24.304 C457.467,25.365 458.189,26.160 459.010,26.690 C459.830,27.220 460.668,27.485 461.525,27.485 C462.773,27.485 463.807,27.128 464.628,26.413 C465.448,25.699 466.099,24.800 466.581,23.717 C467.062,22.634 467.401,21.447 467.597,20.156 C467.793,18.865 467.892,17.644 467.892,16.491 C467.892,14.417 467.695,12.648 467.303,11.184 ZM449.071,7.744 C448.866,7.238 448.630,6.794 448.362,6.413 C448.095,6.033 447.774,5.734 447.399,5.515 C447.025,5.296 446.543,5.186 445.955,5.186 L443.547,5.186 L443.547,23.959 C443.547,24.766 443.556,25.376 443.574,25.791 C443.591,26.206 443.667,26.517 443.801,26.724 C443.935,26.932 444.158,27.070 444.470,27.139 C444.782,27.208 445.241,27.290 445.848,27.381 L445.848,28.280 L438.651,28.280 L438.651,27.381 C439.257,27.290 439.717,27.208 440.029,27.139 C440.341,27.070 440.564,26.932 440.698,26.724 C440.831,26.517 440.907,26.206 440.925,25.791 C440.943,25.376 440.952,24.766 440.952,23.959 L440.952,5.186 L438.544,5.186 C437.956,5.186 437.474,5.296 437.099,5.515 C436.725,5.734 436.404,6.033 436.136,6.413 C435.869,6.794 435.632,7.238 435.427,7.744 C435.222,8.252 435.013,8.793 434.799,9.369 L434.130,9.369 L434.852,4.080 L449.646,4.080 L450.369,9.369 L449.700,9.369 C449.486,8.793 449.276,8.252 449.071,7.744 ZM424.834,5.359 C424.432,5.613 424.089,6.177 423.804,7.053 C422.680,10.626 421.552,14.163 420.420,17.667 C419.287,21.170 418.159,24.708 417.035,28.280 L415.671,28.280 C414.850,25.261 414.003,22.156 413.129,18.963 C412.255,15.771 411.408,12.700 410.588,9.750 C410.338,8.828 410.097,8.061 409.866,7.451 C409.634,6.840 409.393,6.350 409.143,5.981 C408.893,5.613 408.635,5.354 408.367,5.203 C408.100,5.054 407.806,4.979 407.485,4.979 L407.485,4.080 L414.761,4.080 L414.761,4.979 C414.387,4.979 414.052,5.025 413.758,5.117 C413.464,5.209 413.227,5.394 413.049,5.670 C412.871,5.947 412.782,6.339 412.782,6.845 C412.782,7.353 412.889,8.021 413.103,8.851 C413.370,9.865 413.660,10.989 413.972,12.221 C414.284,13.455 414.614,14.734 414.962,16.059 C415.310,17.385 415.662,18.733 416.019,20.104 C416.375,21.476 416.732,22.818 417.089,24.132 C417.945,21.481 418.783,18.831 419.604,16.180 C420.424,13.530 421.253,10.879 422.092,8.228 C422.430,7.122 422.435,6.304 422.105,5.774 C421.775,5.244 421.155,4.979 420.246,4.979 L420.246,4.080 L426.024,4.080 L426.024,4.979 C425.632,4.979 425.235,5.106 424.834,5.359 ZM405.759,7.744 C405.554,7.238 405.318,6.794 405.050,6.413 C404.783,6.033 404.462,5.734 404.087,5.515 C403.713,5.296 403.231,5.186 402.643,5.186 L400.235,5.186 L400.235,23.959 C400.235,24.766 400.244,25.376 400.262,25.791 C400.279,26.206 400.355,26.517 400.489,26.724 C400.623,26.932 400.846,27.070 401.158,27.139 C401.470,27.208 401.929,27.290 402.536,27.381 L402.536,28.280 L395.339,28.280 L395.339,27.381 C395.945,27.290 396.405,27.208 396.717,27.139 C397.029,27.070 397.252,26.932 397.386,26.724 C397.519,26.517 397.595,26.206 397.613,25.791 C397.631,25.376 397.640,24.766 397.640,23.959 L397.640,5.186 L395.232,5.186 C394.644,5.186 394.162,5.296 393.787,5.515 C393.413,5.734 393.092,6.033 392.824,6.413 C392.557,6.794 392.320,7.238 392.115,7.744 C391.910,8.252 391.701,8.793 391.487,9.369 L390.818,9.369 L391.540,4.080 L406.334,4.080 L407.057,9.369 L406.388,9.369 C406.174,8.793 405.964,8.252 405.759,7.744 ZM387.046,30.268 C386.672,31.086 386.284,31.893 385.882,32.688 C385.481,33.483 385.155,34.111 384.906,34.572 L384.023,33.466 C384.594,32.567 384.999,31.737 385.240,30.977 C385.481,30.216 385.628,29.525 385.682,28.902 C385.735,28.280 385.731,27.716 385.668,27.208 C385.606,26.702 385.557,26.252 385.521,25.860 C385.503,25.722 385.575,25.538 385.735,25.307 C385.896,25.077 386.083,24.840 386.297,24.598 C386.511,24.356 386.712,24.149 386.899,23.976 C387.086,23.803 387.207,23.717 387.260,23.717 C387.367,23.717 387.488,23.815 387.621,24.010 C387.755,24.207 387.884,24.454 388.009,24.754 C388.134,25.054 388.237,25.365 388.317,25.687 C388.397,26.010 388.437,26.298 388.437,26.552 C388.437,26.828 388.299,27.312 388.023,28.004 C387.746,28.695 387.421,29.450 387.046,30.268 ZM376.479,27.381 C377.317,27.381 377.817,27.128 377.977,26.621 C378.138,26.114 378.111,25.480 377.897,24.719 L376.746,20.260 L369.924,20.260 L368.694,24.892 C368.515,25.561 368.547,26.143 368.788,26.638 C369.028,27.134 369.443,27.381 370.032,27.381 L370.032,28.280 L365.163,28.280 L365.163,27.381 C365.519,27.381 365.876,27.238 366.233,26.949 C366.589,26.661 366.875,26.229 367.089,25.653 C367.285,25.146 367.530,24.425 367.824,23.492 C368.119,22.559 368.444,21.493 368.801,20.294 C369.158,19.096 369.537,17.794 369.938,16.387 C370.339,14.982 370.749,13.547 371.169,12.083 C371.587,10.620 372.002,9.168 372.412,7.727 C372.823,6.287 373.215,4.933 373.590,3.665 L375.088,3.665 C375.391,4.818 375.717,6.062 376.064,7.399 C376.412,8.736 376.760,10.084 377.108,11.444 C377.455,12.804 377.803,14.140 378.151,15.454 C378.499,16.768 378.824,18.001 379.128,19.153 C379.431,20.306 379.707,21.331 379.957,22.230 C380.206,23.129 380.402,23.832 380.545,24.339 C380.830,25.307 381.121,26.056 381.415,26.586 C381.709,27.117 382.141,27.381 382.712,27.381 L382.712,28.280 L376.479,28.280 L376.479,27.381 ZM373.563,7.710 L373.509,7.710 L370.326,18.946 L376.399,18.946 L373.563,7.710 ZM356.521,27.381 C357.128,27.290 357.587,27.208 357.899,27.139 C358.211,27.070 358.434,26.932 358.568,26.724 C358.702,26.517 358.778,26.206 358.796,25.791 C358.813,25.376 358.822,24.766 358.822,23.959 L358.822,15.800 L349.432,15.800 L349.432,23.959 C349.432,24.766 349.441,25.376 349.459,25.791 C349.476,26.206 349.552,26.517 349.686,26.724 C349.820,26.932 350.043,27.070 350.355,27.139 C350.667,27.208 351.126,27.290 351.733,27.381 L351.733,28.280 L344.536,28.280 L344.536,27.381 C345.142,27.290 345.602,27.208 345.914,27.139 C346.226,27.070 346.449,26.932 346.583,26.724 C346.717,26.517 346.792,26.206 346.810,25.791 C346.828,25.376 346.837,24.766 346.837,23.959 L346.837,8.401 C346.837,7.595 346.828,6.984 346.810,6.569 C346.792,6.154 346.717,5.843 346.583,5.636 C346.449,5.428 346.226,5.290 345.914,5.221 C345.602,5.151 345.142,5.071 344.536,4.979 L344.536,4.080 L351.733,4.080 L351.733,4.979 C351.126,5.071 350.667,5.151 350.355,5.221 C350.043,5.290 349.820,5.428 349.686,5.636 C349.552,5.843 349.476,6.154 349.459,6.569 C349.441,6.984 349.432,7.595 349.432,8.401 L349.432,14.382 L358.822,14.382 L358.822,8.401 C358.822,7.595 358.813,6.984 358.796,6.569 C358.778,6.154 358.702,5.843 358.568,5.636 C358.434,5.428 358.211,5.290 357.899,5.221 C357.587,5.151 357.128,5.071 356.521,4.979 L356.521,4.080 L363.718,4.080 L363.718,4.979 C363.111,5.071 362.652,5.151 362.340,5.221 C362.028,5.290 361.805,5.428 361.671,5.636 C361.538,5.843 361.462,6.154 361.444,6.569 C361.426,6.984 361.417,7.595 361.417,8.401 L361.417,23.959 C361.417,24.766 361.426,25.376 361.444,25.791 C361.462,26.206 361.538,26.517 361.671,26.724 C361.805,26.932 362.028,27.070 362.340,27.139 C362.652,27.208 363.111,27.290 363.718,27.381 L363.718,28.280 L356.521,28.280 L356.521,27.381 ZM340.363,27.053 C339.756,27.595 339.065,28.004 338.289,28.280 C337.514,28.557 336.724,28.695 335.922,28.695 C335.066,28.695 334.263,28.597 333.514,28.401 C332.765,28.206 332.043,27.935 331.347,27.589 C331.222,27.520 331.160,27.359 331.160,27.105 L331.160,22.126 L331.855,22.126 C331.926,23.094 332.096,23.913 332.364,24.581 C332.631,25.250 332.961,25.803 333.354,26.240 C333.746,26.679 334.183,26.996 334.664,27.191 C335.146,27.387 335.645,27.485 336.163,27.485 C336.644,27.485 337.094,27.376 337.514,27.157 C337.933,26.938 338.298,26.633 338.611,26.240 C338.922,25.849 339.168,25.382 339.346,24.840 C339.524,24.299 339.614,23.717 339.614,23.094 C339.614,22.541 339.542,22.000 339.400,21.470 C339.257,20.940 339.003,20.381 338.637,19.793 C338.271,19.205 337.768,18.571 337.126,17.891 C336.484,17.212 335.663,16.445 334.664,15.592 C334.307,15.293 333.938,14.964 333.554,14.607 C333.171,14.250 332.823,13.829 332.511,13.345 C332.199,12.861 331.940,12.291 331.735,11.634 C331.530,10.977 331.427,10.176 331.427,9.231 C331.427,8.448 331.583,7.722 331.896,7.053 C332.207,6.385 332.627,5.797 333.153,5.290 C333.679,4.783 334.290,4.385 334.986,4.097 C335.681,3.809 336.412,3.665 337.179,3.665 C337.750,3.665 338.383,3.711 339.079,3.803 C339.774,3.896 340.390,4.068 340.925,4.322 C341.049,4.368 341.112,4.495 341.112,4.702 L341.112,9.231 L340.416,9.231 C340.363,8.632 340.256,8.067 340.095,7.537 C339.935,7.007 339.721,6.546 339.453,6.154 C339.186,5.762 338.851,5.451 338.450,5.221 C338.049,4.991 337.581,4.875 337.045,4.875 C336.653,4.875 336.278,4.944 335.922,5.082 C335.565,5.221 335.253,5.434 334.986,5.722 C334.718,6.010 334.504,6.379 334.343,6.828 C334.183,7.278 334.103,7.825 334.103,8.470 C334.103,9.070 334.214,9.623 334.437,10.130 C334.660,10.637 334.972,11.138 335.373,11.634 C335.775,12.130 336.252,12.642 336.805,13.172 C337.357,13.703 337.972,14.290 338.651,14.935 C339.364,15.627 339.957,16.261 340.430,16.837 C340.902,17.413 341.286,17.990 341.580,18.566 C341.874,19.142 342.084,19.730 342.209,20.329 C342.333,20.928 342.396,21.585 342.396,22.299 C342.396,23.336 342.209,24.253 341.834,25.048 C341.460,25.843 340.969,26.512 340.363,27.053 ZM321.823,27.381 C322.429,27.290 322.889,27.208 323.201,27.139 C323.513,27.070 323.736,26.932 323.870,26.724 C324.003,26.517 324.079,26.206 324.097,25.791 C324.115,25.376 324.124,24.766 324.124,23.959 L324.124,8.401 C324.124,7.595 324.115,6.984 324.097,6.569 C324.079,6.154 324.003,5.843 323.870,5.636 C323.736,5.428 323.513,5.290 323.201,5.221 C322.889,5.151 322.429,5.071 321.823,4.979 L321.823,4.080 L329.020,4.080 L329.020,4.979 C328.413,5.071 327.954,5.151 327.642,5.221 C327.330,5.290 327.107,5.428 326.973,5.636 C326.839,5.843 326.763,6.154 326.746,6.569 C326.728,6.984 326.719,7.595 326.719,8.401 L326.719,23.959 C326.719,24.766 326.728,25.376 326.746,25.791 C326.763,26.206 326.839,26.517 326.973,26.724 C327.107,26.932 327.330,27.070 327.642,27.139 C327.954,27.208 328.413,27.290 329.020,27.381 L329.020,28.280 L321.823,28.280 L321.823,27.381 ZM306.440,28.280 L306.440,27.381 C307.046,27.290 307.506,27.208 307.818,27.139 C308.130,27.070 308.353,26.932 308.487,26.724 C308.621,26.517 308.696,26.206 308.714,25.791 C308.732,25.376 308.741,24.766 308.741,23.959 L308.741,8.401 C308.741,7.595 308.732,6.984 308.714,6.569 C308.696,6.154 308.621,5.843 308.487,5.636 C308.353,5.428 308.130,5.290 307.818,5.221 C307.506,5.151 307.046,5.071 306.440,4.979 L306.440,4.080 L318.399,4.080 L318.399,9.646 L317.703,9.646 C317.632,9.001 317.543,8.407 317.436,7.865 C317.329,7.324 317.172,6.857 316.968,6.465 C316.762,6.074 316.499,5.762 316.178,5.532 C315.857,5.302 315.456,5.186 314.974,5.186 L311.336,5.186 L311.336,15.074 L313.583,15.074 C314.439,15.074 315.055,14.844 315.429,14.382 C315.804,13.921 316.009,13.149 316.045,12.066 L316.740,12.066 L316.740,19.430 L316.045,19.430 C316.009,18.393 315.817,17.592 315.469,17.027 C315.122,16.462 314.493,16.180 313.583,16.180 L311.336,16.180 L311.336,23.993 C311.336,24.731 311.403,25.313 311.537,25.739 C311.671,26.166 311.875,26.482 312.152,26.690 C312.428,26.897 312.785,27.030 313.222,27.087 C313.659,27.145 314.181,27.174 314.787,27.174 C315.750,27.174 316.495,27.082 317.021,26.897 C317.547,26.713 317.957,26.413 318.252,25.998 C318.546,25.584 318.787,25.054 318.974,24.408 C319.161,23.763 319.406,22.979 319.710,22.057 L320.405,22.057 L319.603,28.280 L306.440,28.280 ZM302.803,6.880 C302.767,7.157 302.732,7.445 302.696,7.744 C302.660,8.044 302.643,8.378 302.643,8.747 L302.643,18.496 C302.643,20.363 302.433,21.942 302.014,23.233 C301.595,24.524 301.051,25.572 300.382,26.379 C299.713,27.186 298.951,27.773 298.095,28.142 C297.239,28.510 296.383,28.695 295.527,28.695 C294.099,28.695 292.909,28.470 291.955,28.021 C291.001,27.571 290.234,26.914 289.654,26.050 C289.074,25.186 288.664,24.137 288.424,22.904 C288.183,21.672 288.062,20.271 288.062,18.704 L288.062,8.401 C288.062,7.595 288.053,6.984 288.036,6.569 C288.018,6.154 287.942,5.843 287.808,5.636 C287.675,5.428 287.451,5.290 287.139,5.221 C286.827,5.151 286.368,5.071 285.762,4.979 L285.762,4.080 L292.958,4.080 L292.958,4.979 C292.352,5.071 291.892,5.152 291.580,5.221 C291.268,5.290 291.045,5.429 290.912,5.637 C290.778,5.845 290.702,6.156 290.684,6.572 C290.666,6.987 290.658,7.599 290.658,8.407 L290.658,18.552 C290.658,19.776 290.733,20.907 290.885,21.946 C291.036,22.985 291.300,23.885 291.674,24.646 C292.049,25.408 292.557,26.008 293.199,26.447 C293.841,26.885 294.661,27.105 295.660,27.105 C297.497,27.105 298.888,26.349 299.834,24.837 C300.779,23.325 301.252,21.172 301.252,18.379 L301.252,8.753 C301.252,8.383 301.234,8.049 301.198,7.749 C301.162,7.449 301.127,7.161 301.091,6.883 C301.020,6.260 300.774,5.810 300.355,5.533 C299.936,5.256 299.415,5.071 298.790,4.979 L298.790,4.080 L305.104,4.080 L305.104,4.979 C304.462,5.071 303.936,5.255 303.526,5.532 C303.115,5.808 302.874,6.258 302.803,6.880 ZM277.711,27.381 C278.317,27.290 278.777,27.208 279.089,27.139 C279.401,27.070 279.624,26.932 279.758,26.724 C279.892,26.517 279.967,26.206 279.985,25.791 C280.003,25.376 280.012,24.766 280.012,23.959 L280.012,15.800 L270.622,15.800 L270.622,23.959 C270.622,24.766 270.631,25.376 270.649,25.791 C270.666,26.206 270.742,26.517 270.876,26.724 C271.010,26.932 271.233,27.070 271.545,27.139 C271.857,27.208 272.316,27.290 272.923,27.381 L272.923,28.280 L265.726,28.280 L265.726,27.381 C266.332,27.290 266.792,27.208 267.104,27.139 C267.416,27.070 267.639,26.932 267.773,26.724 C267.906,26.517 267.982,26.206 268.000,25.791 C268.018,25.376 268.027,24.766 268.027,23.959 L268.027,8.401 C268.027,7.595 268.018,6.984 268.000,6.569 C267.982,6.154 267.906,5.843 267.773,5.636 C267.639,5.428 267.416,5.290 267.104,5.221 C266.792,5.151 266.332,5.071 265.726,4.979 L265.726,4.080 L272.923,4.080 L272.923,4.979 C272.316,5.071 271.857,5.151 271.545,5.221 C271.233,5.290 271.010,5.428 270.876,5.636 C270.742,5.843 270.666,6.154 270.649,6.569 C270.631,6.984 270.622,7.595 270.622,8.401 L270.622,14.382 L280.012,14.382 L280.012,8.401 C280.012,7.595 280.003,6.984 279.985,6.569 C279.967,6.154 279.892,5.843 279.758,5.636 C279.624,5.428 279.401,5.290 279.089,5.221 C278.777,5.151 278.317,5.071 277.711,4.979 L277.711,4.080 L284.908,4.080 L284.908,4.979 C284.301,5.071 283.842,5.151 283.530,5.221 C283.218,5.290 282.995,5.428 282.861,5.636 C282.727,5.843 282.651,6.154 282.634,6.569 C282.616,6.984 282.607,7.595 282.607,8.401 L282.607,23.959 C282.607,24.766 282.616,25.376 282.634,25.791 C282.651,26.206 282.727,26.517 282.861,26.724 C282.995,26.932 283.218,27.070 283.530,27.139 C283.842,27.208 284.301,27.290 284.908,27.381 L284.908,28.280 L277.711,28.280 L277.711,27.381 ZM262.759,27.053 C262.153,27.595 261.462,28.004 260.686,28.280 C259.910,28.557 259.121,28.695 258.318,28.695 C257.462,28.695 256.660,28.597 255.910,28.401 C255.161,28.206 254.439,27.935 253.744,27.589 C253.619,27.520 253.556,27.359 253.556,27.105 L253.556,22.126 L254.252,22.126 C254.323,23.094 254.493,23.913 254.760,24.581 C255.028,25.250 255.357,25.803 255.750,26.240 C256.142,26.679 256.579,26.996 257.061,27.191 C257.542,27.387 258.042,27.485 258.559,27.485 C259.041,27.485 259.491,27.376 259.910,27.157 C260.329,26.938 260.695,26.633 261.007,26.240 C261.319,25.849 261.564,25.382 261.743,24.840 C261.921,24.299 262.010,23.717 262.010,23.094 C262.010,22.541 261.939,22.000 261.796,21.470 C261.653,20.940 261.399,20.381 261.034,19.793 C260.668,19.205 260.164,18.571 259.522,17.891 C258.880,17.212 258.060,16.445 257.061,15.592 C256.704,15.293 256.334,14.964 255.951,14.607 C255.567,14.250 255.219,13.829 254.907,13.345 C254.595,12.861 254.336,12.291 254.131,11.634 C253.926,10.977 253.824,10.176 253.824,9.231 C253.824,8.448 253.980,7.722 254.292,7.053 C254.604,6.385 255.023,5.797 255.549,5.290 C256.075,4.783 256.686,4.385 257.382,4.097 C258.077,3.809 258.809,3.665 259.576,3.665 C260.146,3.665 260.780,3.711 261.475,3.803 C262.171,3.896 262.786,4.068 263.321,4.322 C263.446,4.368 263.508,4.495 263.508,4.702 L263.508,9.231 L262.813,9.231 C262.759,8.632 262.652,8.067 262.492,7.537 C262.331,7.007 262.117,6.546 261.850,6.154 C261.582,5.762 261.248,5.451 260.846,5.221 C260.445,4.991 259.977,4.875 259.442,4.875 C259.049,4.875 258.675,4.944 258.318,5.082 C257.961,5.221 257.649,5.434 257.382,5.722 C257.114,6.010 256.900,6.379 256.740,6.828 C256.579,7.278 256.499,7.825 256.499,8.470 C256.499,9.070 256.610,9.623 256.833,10.130 C257.056,10.637 257.369,11.138 257.770,11.634 C258.171,12.130 258.648,12.642 259.201,13.172 C259.754,13.703 260.369,14.290 261.047,14.935 C261.760,15.627 262.353,16.261 262.826,16.837 C263.298,17.413 263.682,17.990 263.976,18.566 C264.271,19.142 264.480,19.730 264.605,20.329 C264.730,20.928 264.792,21.585 264.792,22.299 C264.792,23.336 264.605,24.253 264.231,25.048 C263.856,25.843 263.365,26.512 262.759,27.053 ZM241.488,32.014 L248.497,2.870 L250.182,2.870 L243.200,32.014 L241.488,32.014 ZM230.931,24.218 C231.350,24.967 231.890,25.572 232.550,26.033 C233.209,26.494 234.021,26.724 234.984,26.724 C235.715,26.724 236.317,26.569 236.790,26.258 C237.263,25.947 237.660,25.687 237.981,25.480 L238.409,26.552 L234.904,28.695 L234.075,28.695 C233.914,28.695 233.660,28.701 233.312,28.712 C232.965,28.724 232.559,28.661 232.095,28.522 C231.631,28.384 231.132,28.131 230.597,27.762 C230.062,27.393 229.527,26.828 228.992,26.068 C228.795,25.768 228.590,25.382 228.376,24.909 C228.162,24.437 227.966,23.913 227.788,23.336 C227.609,22.761 227.467,22.150 227.360,21.504 C227.253,20.859 227.199,20.214 227.199,19.568 C227.199,18.554 227.310,17.517 227.534,16.457 C227.756,15.397 228.113,14.429 228.604,13.552 C229.094,12.677 229.736,11.962 230.530,11.409 C231.323,10.856 232.291,10.579 233.433,10.579 C234.182,10.579 234.864,10.752 235.479,11.098 C236.095,11.444 236.620,11.928 237.058,12.550 C237.495,13.172 237.829,13.927 238.061,14.814 C238.292,15.702 238.409,16.687 238.409,17.770 L238.409,18.738 L229.741,18.738 C229.741,19.730 229.834,20.704 230.022,21.660 C230.209,22.616 230.512,23.469 230.931,24.218 ZM234.744,17.528 C235.047,17.528 235.346,17.385 235.640,17.096 C235.934,16.808 236.081,16.284 236.081,15.523 C236.081,14.970 236.005,14.463 235.854,14.002 C235.702,13.541 235.497,13.149 235.238,12.826 C234.980,12.504 234.681,12.251 234.342,12.066 C234.003,11.882 233.647,11.789 233.272,11.789 C232.826,11.789 232.389,11.882 231.961,12.066 C231.533,12.251 231.154,12.567 230.824,13.017 C230.494,13.466 230.231,14.060 230.035,14.797 C229.839,15.535 229.741,16.445 229.741,17.528 L234.744,17.528 ZM224.712,14.901 C224.551,15.017 224.417,15.028 224.310,14.935 L222.946,12.896 C222.749,12.619 222.478,12.366 222.130,12.135 C221.782,11.905 221.350,11.789 220.833,11.789 C220.440,11.789 220.012,11.899 219.548,12.118 C219.084,12.337 218.656,12.706 218.264,13.224 C217.872,13.743 217.542,14.429 217.274,15.281 C217.007,16.134 216.873,17.183 216.873,18.427 C216.873,19.349 216.958,20.300 217.127,21.279 C217.296,22.259 217.582,23.152 217.983,23.959 C218.385,24.766 218.915,25.428 219.575,25.947 C220.235,26.465 221.047,26.724 222.010,26.724 C222.741,26.724 223.338,26.569 223.802,26.258 C224.266,25.947 224.667,25.676 225.006,25.445 L225.461,26.517 L221.903,28.695 C221.742,28.695 221.443,28.701 221.006,28.712 C220.569,28.724 220.070,28.661 219.508,28.522 C218.946,28.384 218.358,28.125 217.743,27.744 C217.127,27.364 216.552,26.794 216.017,26.033 C215.803,25.734 215.589,25.348 215.375,24.875 C215.161,24.403 214.969,23.878 214.800,23.302 C214.630,22.726 214.492,22.121 214.385,21.487 C214.278,20.853 214.225,20.214 214.225,19.568 C214.225,18.208 214.412,16.975 214.786,15.869 C215.161,14.763 215.678,13.818 216.338,13.034 C216.998,12.251 217.760,11.646 218.625,11.219 C219.490,10.793 220.422,10.579 221.421,10.579 C221.920,10.579 222.482,10.648 223.107,10.787 C223.731,10.925 224.266,11.156 224.712,11.478 L225.648,13.794 C225.737,13.956 225.737,14.071 225.648,14.140 L224.712,14.901 ZM206.047,27.381 C206.617,27.290 207.050,27.203 207.344,27.122 C207.639,27.041 207.848,26.897 207.973,26.690 C208.098,26.482 208.164,26.171 208.174,25.756 C208.183,25.342 208.187,24.742 208.187,23.959 L208.187,14.382 C208.187,13.991 208.138,13.691 208.040,13.483 C207.942,13.276 207.799,13.132 207.612,13.051 C207.425,12.971 207.197,12.930 206.930,12.930 C206.662,12.930 206.368,12.930 206.047,12.930 L206.047,12.031 C206.796,11.986 207.576,11.853 208.388,11.634 C209.199,11.415 209.917,11.063 210.541,10.579 L210.595,10.648 L210.595,23.959 C210.595,24.742 210.599,25.342 210.608,25.756 C210.617,26.171 210.684,26.482 210.809,26.690 C210.933,26.897 211.143,27.041 211.438,27.122 C211.732,27.203 212.164,27.290 212.735,27.381 L212.735,28.280 L206.047,28.280 L206.047,27.381 ZM209.123,8.332 C208.695,8.332 208.325,8.137 208.013,7.744 C207.701,7.353 207.545,6.869 207.545,6.292 C207.545,5.739 207.701,5.267 208.013,4.875 C208.325,4.483 208.686,4.287 209.097,4.287 C209.525,4.287 209.895,4.489 210.207,4.892 C210.519,5.296 210.675,5.762 210.675,6.292 C210.675,6.823 210.519,7.295 210.207,7.710 C209.895,8.125 209.534,8.332 209.123,8.332 ZM201.329,24.477 C200.429,25.653 199.323,26.581 198.012,27.260 C196.701,27.940 195.216,28.280 193.558,28.280 L185.452,28.280 L185.452,27.381 C186.058,27.290 186.517,27.208 186.829,27.139 C187.141,27.070 187.365,26.932 187.498,26.724 C187.632,26.517 187.708,26.206 187.726,25.791 C187.743,25.376 187.752,24.766 187.752,23.959 L187.752,8.401 C187.752,7.595 187.743,6.984 187.726,6.569 C187.708,6.154 187.632,5.843 187.498,5.636 C187.365,5.428 187.141,5.290 186.829,5.221 C186.517,5.151 186.058,5.071 185.452,4.979 L185.452,4.080 L194.334,4.080 C195.956,4.080 197.379,4.339 198.601,4.858 C199.822,5.376 200.843,6.125 201.664,7.105 C202.484,8.085 203.099,9.283 203.510,10.700 C203.920,12.118 204.125,13.714 204.125,15.489 C204.125,17.217 203.884,18.854 203.403,20.398 C202.921,21.942 202.230,23.302 201.329,24.477 ZM199.082,7.900 C197.753,6.091 195.796,5.186 193.210,5.186 L190.347,5.186 L190.347,23.371 C190.347,24.316 190.396,25.042 190.495,25.549 C190.592,26.056 190.762,26.431 191.003,26.673 C191.244,26.914 191.569,27.059 191.979,27.105 C192.389,27.151 192.916,27.174 193.558,27.174 C194.610,27.174 195.595,26.978 196.514,26.586 C197.432,26.195 198.230,25.544 198.908,24.633 C199.586,23.723 200.116,22.530 200.500,21.055 C200.883,19.580 201.075,17.748 201.075,15.558 C201.075,12.262 200.411,9.710 199.082,7.900 ZM176.227,25.981 C175.593,26.823 174.840,27.485 173.966,27.969 C173.092,28.453 172.120,28.695 171.050,28.695 C170.194,28.695 169.364,28.505 168.562,28.125 C167.759,27.744 167.050,27.186 166.435,26.448 C165.820,25.711 165.325,24.783 164.950,23.665 C164.576,22.547 164.389,21.251 164.389,19.775 C164.389,18.577 164.553,17.424 164.883,16.318 C165.213,15.212 165.686,14.233 166.301,13.380 C166.917,12.527 167.666,11.847 168.549,11.340 C169.431,10.833 170.425,10.579 171.531,10.579 C172.370,10.579 173.186,10.764 173.979,11.132 C174.773,11.501 175.482,12.055 176.106,12.792 C176.730,13.530 177.234,14.457 177.618,15.575 C178.001,16.693 178.193,18.001 178.193,19.499 C178.193,20.743 178.023,21.925 177.685,23.042 C177.346,24.161 176.859,25.140 176.227,25.981 ZM175.304,16.820 C175.143,15.886 174.884,15.045 174.528,14.296 C174.171,13.547 173.716,12.942 173.163,12.481 C172.610,12.020 171.942,11.789 171.157,11.789 C170.586,11.789 170.051,11.951 169.552,12.273 C169.052,12.596 168.615,13.080 168.241,13.725 C167.866,14.371 167.572,15.183 167.358,16.163 C167.144,17.143 167.037,18.301 167.037,19.637 C167.037,20.743 167.131,21.775 167.318,22.731 C167.505,23.688 167.786,24.518 168.161,25.221 C168.535,25.924 168.999,26.477 169.552,26.880 C170.104,27.284 170.746,27.485 171.478,27.485 C172.031,27.485 172.552,27.329 173.043,27.018 C173.533,26.707 173.966,26.229 174.340,25.584 C174.715,24.939 175.009,24.126 175.223,23.146 C175.437,22.167 175.544,21.009 175.544,19.672 C175.544,18.704 175.464,17.753 175.304,16.820 ZM155.122,27.381 C155.693,27.290 156.126,27.203 156.420,27.122 C156.714,27.041 156.924,26.897 157.049,26.690 C157.173,26.482 157.240,26.171 157.249,25.756 C157.258,25.342 157.263,24.742 157.263,23.959 L157.263,14.382 C157.263,13.991 157.213,13.691 157.115,13.483 C157.017,13.276 156.875,13.132 156.688,13.051 C156.500,12.971 156.273,12.930 156.005,12.930 C155.738,12.930 155.444,12.930 155.122,12.930 L155.122,12.031 C155.871,11.986 156.652,11.853 157.463,11.634 C158.275,11.415 158.992,11.063 159.617,10.579 L159.670,10.648 L159.670,23.959 C159.670,24.742 159.675,25.342 159.684,25.756 C159.693,26.171 159.759,26.482 159.884,26.690 C160.009,26.897 160.219,27.041 160.513,27.122 C160.807,27.203 161.240,27.290 161.811,27.381 L161.811,28.280 L155.122,28.280 L155.122,27.381 ZM158.199,8.332 C157.771,8.332 157.401,8.137 157.089,7.744 C156.776,7.353 156.621,6.869 156.621,6.292 C156.621,5.739 156.776,5.267 157.089,4.875 C157.401,4.483 157.762,4.287 158.172,4.287 C158.600,4.287 158.970,4.489 159.282,4.892 C159.594,5.296 159.751,5.762 159.751,6.292 C159.751,6.823 159.594,7.295 159.282,7.710 C158.970,8.125 158.609,8.332 158.199,8.332 ZM150.210,27.641 C150.120,27.260 150.067,26.805 150.049,26.275 L148.257,27.658 C147.739,28.050 147.351,28.320 147.093,28.470 C146.834,28.620 146.545,28.695 146.224,28.695 C145.118,28.695 144.168,28.419 143.375,27.865 C142.581,27.312 141.930,26.604 141.422,25.739 C140.913,24.875 140.539,23.924 140.298,22.887 C140.057,21.850 139.937,20.836 139.937,19.845 C139.937,18.323 140.137,16.981 140.539,15.817 C140.940,14.653 141.470,13.685 142.131,12.913 C142.790,12.141 143.544,11.559 144.391,11.167 C145.238,10.775 146.117,10.579 147.026,10.579 C147.454,10.579 147.945,10.614 148.498,10.683 C149.050,10.752 149.568,10.914 150.049,11.167 L150.049,6.327 C150.049,5.866 149.965,5.497 149.795,5.221 C149.626,4.944 149.363,4.806 149.006,4.806 L147.909,4.806 L147.909,3.907 C148.712,3.861 149.514,3.746 150.317,3.561 C151.119,3.377 151.815,3.146 152.404,2.870 L152.457,2.939 L152.457,23.820 C152.457,24.259 152.470,24.667 152.497,25.048 C152.524,25.428 152.600,25.739 152.725,25.981 C152.849,26.223 153.036,26.373 153.286,26.431 C153.536,26.488 153.884,26.402 154.330,26.171 L154.490,27.139 L150.638,28.695 C150.441,28.372 150.299,28.021 150.210,27.641 ZM150.049,13.864 C149.692,13.126 149.238,12.596 148.685,12.273 C148.132,11.951 147.436,11.789 146.598,11.789 C145.867,11.789 145.238,12.009 144.712,12.446 C144.186,12.884 143.758,13.437 143.428,14.106 C143.098,14.774 142.857,15.500 142.706,16.284 C142.554,17.068 142.478,17.794 142.478,18.462 C142.478,19.361 142.559,20.294 142.719,21.262 C142.880,22.230 143.138,23.124 143.495,23.941 C143.851,24.760 144.315,25.428 144.886,25.947 C145.457,26.465 146.152,26.724 146.973,26.724 C147.329,26.724 147.690,26.638 148.056,26.465 C148.422,26.292 148.752,26.056 149.046,25.756 C149.340,25.457 149.581,25.111 149.768,24.719 C149.956,24.328 150.049,23.924 150.049,23.509 L150.049,13.864 ZM133.944,27.520 C133.837,27.036 133.784,26.540 133.784,26.033 L131.430,27.796 C130.859,28.211 130.400,28.464 130.052,28.557 C129.704,28.649 129.334,28.695 128.942,28.695 C128.175,28.695 127.537,28.528 127.029,28.194 C126.520,27.860 126.119,27.387 125.825,26.776 C125.531,26.166 125.325,25.451 125.210,24.633 C125.093,23.815 125.036,22.921 125.036,21.953 L125.036,14.382 C125.036,13.991 124.986,13.691 124.889,13.483 C124.790,13.276 124.648,13.132 124.461,13.051 C124.273,12.971 124.046,12.930 123.778,12.930 C123.758,12.930 123.731,12.930 123.711,12.930 L122.943,13.414 L119.973,13.414 L119.973,22.507 C119.973,22.852 119.986,23.256 120.013,23.717 C120.040,24.178 120.111,24.627 120.227,25.065 C120.343,25.503 120.521,25.872 120.762,26.171 C121.003,26.471 121.346,26.621 121.792,26.621 C122.149,26.621 122.501,26.598 122.849,26.552 C123.197,26.506 123.531,26.391 123.852,26.206 L124.039,27.105 L120.936,28.695 C120.472,28.695 120.035,28.631 119.625,28.505 C119.215,28.378 118.858,28.125 118.555,27.744 C118.252,27.364 118.011,26.811 117.833,26.085 C117.654,25.359 117.565,24.408 117.565,23.233 L117.565,13.414 L115.425,13.414 L115.425,11.824 L117.565,11.824 L117.565,8.194 C118.047,7.526 118.609,6.880 119.251,6.258 L119.973,6.258 L119.973,11.824 L124.039,11.824 L124.039,11.895 C124.423,11.829 124.817,11.742 125.223,11.634 C126.043,11.415 126.765,11.063 127.390,10.579 L127.443,10.648 L127.443,21.642 C127.443,22.288 127.470,22.910 127.524,23.509 C127.577,24.109 127.698,24.645 127.885,25.117 C128.072,25.590 128.344,25.964 128.701,26.240 C129.057,26.517 129.530,26.655 130.119,26.655 C130.743,26.655 131.282,26.540 131.737,26.310 C132.192,26.079 132.571,25.693 132.874,25.151 C133.177,24.610 133.405,23.907 133.556,23.042 C133.708,22.178 133.784,21.101 133.784,19.810 L133.784,14.382 C133.784,13.991 133.735,13.691 133.637,13.483 C133.539,13.276 133.396,13.132 133.209,13.051 C133.021,12.971 132.794,12.930 132.526,12.930 C132.259,12.930 131.965,12.930 131.644,12.930 L131.644,12.031 C132.393,11.986 133.173,11.853 133.984,11.634 C134.796,11.415 135.514,11.063 136.138,10.579 L136.192,10.648 L136.192,23.820 C136.192,24.259 136.205,24.667 136.232,25.048 C136.259,25.428 136.334,25.739 136.459,25.981 C136.584,26.223 136.771,26.373 137.021,26.431 C137.270,26.488 137.618,26.402 138.064,26.171 L138.225,27.139 L134.399,28.695 C134.203,28.395 134.051,28.004 133.944,27.520 ZM111.573,27.053 C110.966,27.595 110.275,28.004 109.499,28.280 C108.723,28.557 107.934,28.695 107.132,28.695 C106.276,28.695 105.473,28.597 104.724,28.401 C103.975,28.206 103.253,27.935 102.557,27.589 C102.432,27.520 102.370,27.359 102.370,27.105 L102.370,22.126 L103.065,22.126 C103.136,23.094 103.306,23.913 103.574,24.581 C103.841,25.250 104.171,25.803 104.563,26.240 C104.956,26.679 105.393,26.996 105.874,27.191 C106.356,27.387 106.855,27.485 107.373,27.485 C107.854,27.485 108.304,27.376 108.723,27.157 C109.142,26.938 109.508,26.633 109.820,26.240 C110.132,25.849 110.378,25.382 110.556,24.840 C110.734,24.299 110.824,23.717 110.824,23.094 C110.824,22.541 110.752,22.000 110.610,21.470 C110.467,20.940 110.212,20.381 109.847,19.793 C109.481,19.205 108.978,18.571 108.336,17.891 C107.694,17.212 106.873,16.445 105.874,15.592 C105.517,15.293 105.147,14.964 104.764,14.607 C104.380,14.250 104.033,13.829 103.721,13.345 C103.409,12.861 103.150,12.291 102.945,11.634 C102.740,10.977 102.637,10.176 102.637,9.231 C102.637,8.448 102.793,7.722 103.105,7.053 C103.417,6.385 103.837,5.797 104.363,5.290 C104.889,4.783 105.500,4.385 106.195,4.097 C106.891,3.809 107.622,3.665 108.389,3.665 C108.960,3.665 109.593,3.711 110.289,3.803 C110.984,3.896 111.599,4.068 112.134,4.322 C112.259,4.368 112.322,4.495 112.322,4.702 L112.322,9.231 L111.626,9.231 C111.573,8.632 111.466,8.067 111.305,7.537 C111.145,7.007 110.931,6.546 110.663,6.154 C110.396,5.762 110.061,5.451 109.660,5.221 C109.259,4.991 108.790,4.875 108.255,4.875 C107.863,4.875 107.488,4.944 107.132,5.082 C106.775,5.221 106.463,5.434 106.195,5.722 C105.928,6.010 105.714,6.379 105.553,6.828 C105.393,7.278 105.312,7.825 105.312,8.470 C105.312,9.070 105.424,9.623 105.647,10.130 C105.870,10.637 106.182,11.138 106.583,11.634 C106.985,12.130 107.462,12.642 108.015,13.172 C108.567,13.703 109.183,14.290 109.860,14.935 C110.574,15.627 111.167,16.261 111.640,16.837 C112.112,17.413 112.496,17.990 112.790,18.566 C113.084,19.142 113.294,19.730 113.419,20.329 C113.543,20.928 113.606,21.585 113.606,22.299 C113.606,23.336 113.419,24.253 113.044,25.048 C112.670,25.843 112.179,26.512 111.573,27.053 ZM91.893,25.134 C91.287,26.287 90.560,27.168 89.713,27.779 C88.866,28.389 87.943,28.695 86.944,28.695 C85.945,28.695 85.022,28.389 84.175,27.779 C83.328,27.168 82.601,26.287 81.995,25.134 C81.388,23.982 80.916,22.588 80.577,20.951 C80.238,19.315 80.069,17.471 80.069,15.419 C80.069,14.129 80.202,12.786 80.470,11.392 C80.738,9.998 81.152,8.730 81.714,7.589 C82.276,6.448 82.989,5.509 83.854,4.771 C84.719,4.034 85.749,3.665 86.944,3.665 C88.139,3.665 89.169,4.034 90.034,4.771 C90.899,5.509 91.613,6.448 92.174,7.589 C92.736,8.730 93.151,9.998 93.418,11.392 C93.686,12.786 93.820,14.129 93.820,15.419 C93.820,17.471 93.650,19.315 93.311,20.951 C92.972,22.588 92.500,23.982 91.893,25.134 ZM90.730,11.046 C90.560,9.767 90.346,8.718 90.088,7.900 C89.829,7.082 89.539,6.460 89.218,6.033 C88.897,5.607 88.585,5.302 88.282,5.117 C87.978,4.933 87.707,4.829 87.466,4.806 C87.225,4.783 87.051,4.771 86.944,4.771 C86.837,4.771 86.663,4.783 86.422,4.806 C86.182,4.829 85.910,4.933 85.607,5.117 C85.303,5.302 84.995,5.607 84.684,6.033 C84.371,6.460 84.082,7.082 83.814,7.900 C83.547,8.718 83.328,9.761 83.159,11.029 C82.989,12.297 82.905,13.875 82.905,15.765 C82.905,17.794 82.989,19.488 83.159,20.847 C83.328,22.207 83.547,23.325 83.814,24.201 C84.082,25.077 84.371,25.745 84.684,26.206 C84.995,26.667 85.303,27.001 85.607,27.208 C85.910,27.416 86.182,27.532 86.422,27.554 C86.663,27.577 86.837,27.589 86.944,27.589 C87.051,27.589 87.225,27.577 87.466,27.554 C87.707,27.532 87.978,27.416 88.282,27.208 C88.585,27.001 88.897,26.667 89.218,26.206 C89.539,25.745 89.829,25.077 90.088,24.201 C90.346,23.325 90.560,22.202 90.730,20.830 C90.899,19.459 90.984,17.770 90.984,15.765 C90.984,13.898 90.899,12.325 90.730,11.046 ZM65.061,28.280 L65.061,26.552 C65.738,25.561 66.380,24.645 66.987,23.803 C67.593,22.962 68.208,22.138 68.833,21.331 C69.332,20.686 69.889,19.931 70.505,19.067 C71.120,18.203 71.695,17.292 72.230,16.335 C72.765,15.379 73.216,14.388 73.581,13.362 C73.947,12.337 74.130,11.340 74.130,10.372 C74.130,9.796 74.058,9.248 73.916,8.730 C73.773,8.211 73.559,7.750 73.274,7.347 C72.988,6.944 72.645,6.627 72.244,6.396 C71.842,6.166 71.383,6.050 70.866,6.050 C70.366,6.050 69.894,6.149 69.448,6.344 C69.002,6.540 68.601,6.851 68.244,7.278 C67.887,7.704 67.584,8.246 67.335,8.903 C67.085,9.559 66.915,10.349 66.826,11.271 L66.131,11.271 L66.131,7.260 C66.880,6.039 67.731,5.134 68.686,4.547 C69.640,3.959 70.652,3.665 71.722,3.665 C72.453,3.665 73.144,3.786 73.795,4.028 C74.446,4.270 75.022,4.633 75.521,5.117 C76.020,5.601 76.413,6.206 76.698,6.932 C76.983,7.658 77.126,8.517 77.126,9.508 C77.126,10.522 76.930,11.519 76.538,12.498 C76.145,13.478 75.668,14.411 75.106,15.298 C74.545,16.186 73.956,17.010 73.341,17.770 C72.725,18.531 72.204,19.188 71.776,19.741 C71.027,20.686 70.237,21.683 69.408,22.731 C68.579,23.780 67.816,24.777 67.121,25.722 L74.611,25.722 C75.057,25.722 75.436,25.624 75.748,25.428 C76.060,25.233 76.328,24.967 76.551,24.633 C76.774,24.299 76.970,23.913 77.140,23.475 C77.309,23.037 77.474,22.565 77.634,22.057 L78.571,22.057 L76.912,28.280 L65.061,28.280 ZM61.182,25.134 C60.575,26.287 59.848,27.168 59.001,27.779 C58.154,28.389 57.231,28.695 56.232,28.695 C55.233,28.695 54.310,28.389 53.464,27.779 C52.616,27.168 51.889,26.287 51.283,25.134 C50.677,23.982 50.204,22.588 49.865,20.951 C49.526,19.315 49.357,17.471 49.357,15.419 C49.357,14.129 49.491,12.786 49.758,11.392 C50.026,9.998 50.441,8.730 51.002,7.589 C51.564,6.448 52.277,5.509 53.143,4.771 C54.007,4.034 55.037,3.665 56.232,3.665 C57.427,3.665 58.457,4.034 59.322,4.771 C60.187,5.509 60.901,6.448 61.463,7.589 C62.025,8.730 62.439,9.998 62.707,11.392 C62.974,12.786 63.108,14.129 63.108,15.419 C63.108,17.471 62.938,19.315 62.600,20.951 C62.261,22.588 61.788,23.982 61.182,25.134 ZM60.018,11.046 C59.848,9.767 59.634,8.718 59.376,7.900 C59.117,7.082 58.828,6.460 58.507,6.033 C58.185,5.607 57.873,5.302 57.570,5.117 C57.267,4.933 56.995,4.829 56.754,4.806 C56.513,4.783 56.339,4.771 56.232,4.771 C56.125,4.771 55.952,4.783 55.711,4.806 C55.470,4.829 55.198,4.933 54.895,5.117 C54.591,5.302 54.284,5.607 53.972,6.033 C53.660,6.460 53.370,7.082 53.102,7.900 C52.835,8.718 52.616,9.761 52.447,11.029 C52.277,12.297 52.193,13.875 52.193,15.765 C52.193,17.794 52.277,19.488 52.447,20.847 C52.616,22.207 52.835,23.325 53.102,24.201 C53.370,25.077 53.660,25.745 53.972,26.206 C54.284,26.667 54.591,27.001 54.895,27.208 C55.198,27.416 55.470,27.532 55.711,27.554 C55.952,27.577 56.125,27.589 56.232,27.589 C56.339,27.589 56.513,27.577 56.754,27.554 C56.995,27.532 57.267,27.416 57.570,27.208 C57.873,27.001 58.185,26.667 58.507,26.206 C58.828,25.745 59.117,25.077 59.376,24.201 C59.634,23.325 59.848,22.202 60.018,20.830 C60.187,19.459 60.272,17.770 60.272,15.765 C60.272,13.898 60.187,12.325 60.018,11.046 ZM34.349,28.280 L34.349,26.552 C35.027,25.561 35.669,24.645 36.275,23.803 C36.881,22.962 37.497,22.138 38.121,21.331 C38.620,20.686 39.178,19.931 39.793,19.067 C40.408,18.203 40.984,17.292 41.519,16.335 C42.054,15.379 42.504,14.388 42.870,13.362 C43.235,12.337 43.418,11.340 43.418,10.372 C43.418,9.796 43.347,9.248 43.204,8.730 C43.061,8.211 42.847,7.750 42.562,7.347 C42.277,6.944 41.933,6.627 41.532,6.396 C41.131,6.166 40.672,6.050 40.154,6.050 C39.655,6.050 39.182,6.149 38.736,6.344 C38.290,6.540 37.889,6.851 37.533,7.278 C37.176,7.704 36.873,8.246 36.623,8.903 C36.373,9.559 36.204,10.349 36.115,11.271 L35.419,11.271 L35.419,7.260 C36.168,6.039 37.020,5.134 37.974,4.547 C38.928,3.959 39.940,3.665 41.010,3.665 C41.742,3.665 42.433,3.786 43.084,4.028 C43.735,4.270 44.310,4.633 44.809,5.117 C45.308,5.601 45.701,6.206 45.986,6.932 C46.272,7.658 46.415,8.517 46.415,9.508 C46.415,10.522 46.218,11.519 45.826,12.498 C45.433,13.478 44.956,14.411 44.395,15.298 C43.833,16.186 43.244,17.010 42.629,17.770 C42.014,18.531 41.492,19.188 41.064,19.741 C40.315,20.686 39.526,21.683 38.696,22.731 C37.867,23.780 37.105,24.777 36.409,25.722 L43.900,25.722 C44.345,25.722 44.724,25.624 45.037,25.428 C45.348,25.233 45.616,24.967 45.839,24.633 C46.062,24.299 46.258,23.913 46.428,23.475 C46.597,23.037 46.762,22.565 46.923,22.057 L47.859,22.057 L46.200,28.280 L34.349,28.280 ZM16.078,32.016 C7.379,32.016 0.328,24.964 0.328,16.266 C0.328,7.567 7.379,0.516 16.078,0.516 C24.776,0.516 31.828,7.567 31.828,16.266 C31.828,24.964 24.776,32.016 16.078,32.016 ZM16.076,2.510 C8.478,2.510 2.318,8.670 2.318,16.268 C2.318,23.866 8.478,30.025 16.076,30.025 C23.674,30.025 29.833,23.866 29.833,16.268 C29.833,8.670 23.674,2.510 16.076,2.510 ZM16.076,26.219 C13.184,26.219 10.902,25.116 9.232,22.909 C7.830,21.046 7.130,18.796 7.130,16.160 C7.130,13.387 7.978,11.053 9.675,9.160 C11.373,7.267 13.499,6.320 16.054,6.320 C17.597,6.320 18.991,6.670 20.235,7.370 C21.479,8.070 22.498,9.051 23.292,10.313 L21.988,11.459 C21.269,10.386 20.405,9.572 19.398,9.019 C18.390,8.465 17.557,8.188 16.351,8.188 C15.032,8.188 13.994,8.551 12.870,9.276 C11.746,10.002 10.875,10.976 10.257,12.200 C9.639,13.423 9.330,14.799 9.330,16.327 C9.330,18.637 10.021,20.565 11.404,22.110 C12.786,23.656 14.347,24.429 16.452,24.429 C18.768,24.429 20.430,23.390 21.988,21.312 L23.292,22.445 C22.468,23.647 21.439,24.577 20.207,25.233 C18.974,25.890 17.597,26.219 16.076,26.219 Z"/>
</svg>