<svg 
 xmlns="http://www.w3.org/2000/svg"
 xmlns:xlink="http://www.w3.org/1999/xlink"
 width="486px" height="29px">
<path fill-rule="evenodd"  fill="rgb(0, 0, 0)"
 d="M483.315,24.424 C483.375,24.810 483.474,25.114 483.613,25.337 C483.753,25.561 483.958,25.747 484.230,25.896 C484.501,26.045 484.942,26.195 485.551,26.344 L485.551,27.257 L477.164,27.257 L477.164,26.344 C477.985,26.145 478.535,25.924 478.813,25.682 C479.092,25.440 479.274,25.095 479.360,24.648 C479.446,24.201 479.489,23.518 479.489,22.598 L479.489,6.481 C479.489,5.623 479.456,4.999 479.390,4.608 C479.323,4.217 479.214,3.912 479.062,3.695 C478.909,3.478 478.707,3.304 478.456,3.173 C478.204,3.043 477.773,2.897 477.164,2.735 L477.164,1.822 L485.551,1.822 L485.551,2.735 C484.968,2.872 484.548,3.009 484.289,3.145 C484.031,3.282 483.825,3.453 483.673,3.658 C483.521,3.863 483.408,4.170 483.335,4.580 C483.262,4.990 483.226,5.623 483.226,6.481 L483.226,22.598 C483.226,23.431 483.256,24.039 483.315,24.424 ZM463.598,26.344 C464.327,26.170 464.837,25.977 465.129,25.766 C465.420,25.555 465.622,25.232 465.735,24.797 C465.847,24.362 465.904,23.629 465.904,22.598 L465.904,14.791 L454.853,14.791 L454.853,22.598 C454.853,23.431 454.883,24.039 454.942,24.424 C455.002,24.810 455.101,25.114 455.240,25.337 C455.379,25.561 455.585,25.747 455.856,25.896 C456.128,26.045 456.569,26.195 457.178,26.344 L457.178,27.257 L448.810,27.257 L448.810,26.344 C449.632,26.145 450.182,25.924 450.460,25.682 C450.738,25.440 450.920,25.095 451.007,24.648 C451.093,24.201 451.136,23.518 451.136,22.598 L451.136,6.481 C451.136,5.623 451.103,4.999 451.036,4.608 C450.970,4.217 450.861,3.912 450.709,3.695 C450.556,3.478 450.354,3.304 450.102,3.173 C449.850,3.043 449.420,2.897 448.810,2.735 L448.810,1.822 L457.178,1.822 L457.178,2.735 C456.595,2.872 456.175,3.009 455.916,3.145 C455.658,3.282 455.452,3.453 455.300,3.658 C455.147,3.863 455.035,4.170 454.962,4.580 C454.889,4.990 454.853,5.623 454.853,6.481 L454.853,13.077 L465.904,13.077 L465.904,6.481 C465.904,5.400 465.847,4.661 465.735,4.263 C465.622,3.866 465.434,3.561 465.169,3.350 C464.903,3.139 464.380,2.934 463.598,2.735 L463.598,1.822 L471.927,1.822 L471.927,2.735 C471.184,2.910 470.668,3.105 470.376,3.322 C470.085,3.540 469.886,3.866 469.780,4.300 C469.674,4.735 469.621,5.462 469.621,6.481 L469.621,22.598 C469.621,23.319 469.641,23.859 469.681,24.219 C469.720,24.580 469.786,24.869 469.879,25.086 C469.972,25.303 470.085,25.480 470.217,25.617 C470.350,25.754 470.538,25.878 470.784,25.989 C471.029,26.101 471.410,26.219 471.927,26.344 L471.927,27.257 L463.598,27.257 L463.598,26.344 ZM433.933,11.064 C434.649,11.586 435.709,12.170 437.114,12.816 C438.810,13.611 440.125,14.350 441.059,15.033 C441.993,15.716 442.722,16.496 443.245,17.372 C443.769,18.247 444.031,19.269 444.031,20.437 C444.031,21.741 443.812,22.844 443.375,23.744 C442.937,24.645 442.331,25.378 441.556,25.943 C440.781,26.508 439.853,26.918 438.773,27.173 C437.693,27.427 436.510,27.555 435.225,27.555 C433.145,27.555 430.746,27.226 428.030,26.567 L428.030,21.462 L430.018,21.462 C430.282,22.555 430.640,23.418 431.091,24.052 C431.541,24.685 432.125,25.154 432.840,25.459 C433.556,25.763 434.476,25.915 435.603,25.915 C437.153,25.915 438.342,25.536 439.171,24.778 C439.999,24.021 440.413,22.915 440.413,21.462 C440.413,20.530 440.241,19.747 439.896,19.114 C439.551,18.480 438.988,17.884 438.207,17.325 C437.425,16.766 436.232,16.114 434.629,15.369 C433.079,14.648 431.853,13.943 430.952,13.254 C430.050,12.564 429.378,11.816 428.934,11.008 C428.490,10.201 428.268,9.319 428.268,8.363 C428.268,6.971 428.616,5.763 429.312,4.738 C430.008,3.713 431.028,2.922 432.373,2.363 C433.718,1.804 435.258,1.524 436.994,1.524 C438.001,1.524 438.985,1.574 439.946,1.673 C440.907,1.773 442.109,1.996 443.554,2.344 L443.554,7.375 L441.586,7.375 C441.281,6.282 440.897,5.431 440.433,4.822 C439.969,4.214 439.426,3.788 438.803,3.546 C438.180,3.304 437.372,3.182 436.378,3.182 C435.517,3.182 434.745,3.331 434.063,3.630 C433.380,3.928 432.840,4.378 432.443,4.981 C432.045,5.583 431.846,6.301 431.846,7.133 C431.846,8.015 432.015,8.760 432.353,9.369 C432.691,9.978 433.218,10.543 433.933,11.064 ZM415.856,26.344 C416.519,26.219 417.012,26.083 417.337,25.934 C417.661,25.785 417.904,25.577 418.062,25.309 C418.222,25.042 418.301,24.685 418.301,24.238 C418.301,23.816 418.248,23.359 418.142,22.868 C418.036,22.378 417.884,21.828 417.685,21.219 L416.949,18.816 L407.687,18.816 L407.011,20.642 C406.666,21.561 406.441,22.257 406.335,22.729 C406.229,23.201 406.176,23.629 406.176,24.014 C406.176,24.760 406.378,25.306 406.783,25.654 C407.187,26.002 407.806,26.232 408.641,26.344 L408.641,27.257 L400.154,27.257 L400.154,26.344 C400.896,26.232 401.542,25.828 402.092,25.132 C402.641,24.437 403.175,23.443 403.692,22.151 L411.980,1.524 L415.121,1.524 L421.879,22.300 C422.197,23.269 422.478,24.008 422.724,24.518 C422.968,25.027 423.263,25.424 423.608,25.710 C423.952,25.996 424.423,26.207 425.019,26.344 L425.019,27.257 L415.856,27.257 L415.856,26.344 ZM412.756,5.176 L408.223,17.195 L416.532,17.195 L412.756,5.176 ZM388.874,26.344 C389.603,26.170 390.113,25.977 390.405,25.766 C390.696,25.555 390.898,25.232 391.011,24.797 C391.123,24.362 391.180,23.629 391.180,22.598 L391.180,14.791 L380.129,14.791 L380.129,22.598 C380.129,23.431 380.158,24.039 380.218,24.424 C380.278,24.810 380.377,25.114 380.516,25.337 C380.655,25.561 380.861,25.747 381.132,25.896 C381.404,26.045 381.845,26.195 382.454,26.344 L382.454,27.257 L374.086,27.257 L374.086,26.344 C374.908,26.145 375.458,25.924 375.736,25.682 C376.014,25.440 376.196,25.095 376.283,24.648 C376.369,24.201 376.412,23.518 376.412,22.598 L376.412,6.481 C376.412,5.623 376.379,4.999 376.312,4.608 C376.246,4.217 376.137,3.912 375.985,3.695 C375.832,3.478 375.630,3.304 375.378,3.173 C375.126,3.043 374.696,2.897 374.086,2.735 L374.086,1.822 L382.454,1.822 L382.454,2.735 C381.871,2.872 381.450,3.009 381.192,3.145 C380.934,3.282 380.728,3.453 380.576,3.658 C380.423,3.863 380.311,4.170 380.238,4.580 C380.165,4.990 380.129,5.623 380.129,6.481 L380.129,13.077 L391.180,13.077 L391.180,6.481 C391.180,5.400 391.123,4.661 391.011,4.263 C390.898,3.866 390.710,3.561 390.444,3.350 C390.180,3.139 389.656,2.934 388.874,2.735 L388.874,1.822 L397.203,1.822 L397.203,2.735 C396.460,2.910 395.943,3.105 395.652,3.322 C395.361,3.540 395.162,3.866 395.056,4.300 C394.950,4.735 394.897,5.462 394.897,6.481 L394.897,22.598 C394.897,23.319 394.917,23.859 394.957,24.219 C394.996,24.580 395.062,24.869 395.155,25.086 C395.248,25.303 395.361,25.480 395.493,25.617 C395.626,25.754 395.814,25.878 396.060,25.989 C396.305,26.101 396.686,26.219 397.203,26.344 L397.203,27.257 L388.874,27.257 L388.874,26.344 ZM361.734,26.344 C362.396,26.219 362.889,26.083 363.214,25.934 C363.539,25.785 363.781,25.577 363.940,25.309 C364.099,25.042 364.178,24.685 364.178,24.238 C364.178,23.816 364.125,23.359 364.019,22.868 C363.913,22.378 363.761,21.828 363.562,21.219 L362.827,18.816 L353.564,18.816 L352.889,20.642 C352.544,21.561 352.319,22.257 352.213,22.729 C352.107,23.201 352.054,23.629 352.054,24.014 C352.054,24.760 352.256,25.306 352.660,25.654 C353.064,26.002 353.684,26.232 354.518,26.344 L354.518,27.257 L346.031,27.257 L346.031,26.344 C346.773,26.232 347.419,25.828 347.969,25.132 C348.519,24.437 349.052,23.443 349.569,22.151 L357.858,1.524 L360.998,1.524 L367.756,22.300 C368.074,23.269 368.355,24.008 368.601,24.518 C368.846,25.027 369.141,25.424 369.485,25.710 C369.830,25.996 370.300,26.207 370.897,26.344 L370.897,27.257 L361.734,27.257 L361.734,26.344 ZM358.633,5.176 L354.101,17.195 L362.409,17.195 L358.633,5.176 ZM336.739,26.344 C337.229,26.306 337.587,26.219 337.813,26.083 C338.038,25.946 338.151,25.741 338.151,25.468 C338.151,25.244 338.074,24.974 337.922,24.657 C337.770,24.340 337.528,23.958 337.197,23.511 L332.565,17.046 C332.022,16.275 331.625,15.766 331.373,15.518 C331.121,15.269 330.849,15.086 330.558,14.968 C330.266,14.850 329.875,14.791 329.385,14.791 L328.332,14.791 L328.332,22.598 C328.332,23.431 328.362,24.039 328.421,24.424 C328.481,24.810 328.580,25.114 328.719,25.337 C328.859,25.561 329.064,25.747 329.336,25.896 C329.607,26.045 330.048,26.195 330.657,26.344 L330.657,27.257 L322.289,27.257 L322.289,26.344 C323.111,26.145 323.661,25.924 323.939,25.682 C324.217,25.440 324.399,25.095 324.486,24.648 C324.572,24.201 324.615,23.518 324.615,22.598 L324.615,6.481 C324.615,5.623 324.582,4.999 324.515,4.608 C324.449,4.217 324.340,3.912 324.188,3.695 C324.035,3.478 323.833,3.304 323.581,3.173 C323.329,3.043 322.899,2.897 322.289,2.735 L322.289,1.822 L330.657,1.822 L330.657,2.735 C330.074,2.872 329.654,3.009 329.395,3.145 C329.137,3.282 328.931,3.453 328.779,3.658 C328.626,3.863 328.514,4.170 328.441,4.580 C328.368,4.990 328.332,5.623 328.332,6.481 L328.312,13.319 L328.908,13.319 C329.412,13.319 329.872,13.244 330.290,13.095 C330.707,12.946 331.174,12.667 331.691,12.257 C332.208,11.847 332.996,11.083 334.056,9.965 C335.328,8.636 336.196,7.673 336.660,7.077 C337.243,6.369 337.634,5.772 337.833,5.288 C337.992,4.928 338.071,4.580 338.071,4.244 C338.071,3.748 337.919,3.384 337.614,3.154 C337.309,2.925 336.892,2.785 336.362,2.735 L336.362,1.822 L345.028,1.822 L345.028,2.735 C344.604,2.822 344.186,2.975 343.776,3.192 C343.365,3.409 342.944,3.707 342.514,4.086 C342.083,4.465 341.450,5.089 340.615,5.959 L333.937,13.002 L341.172,22.859 C341.940,23.903 342.543,24.633 342.981,25.049 C343.418,25.465 343.835,25.769 344.233,25.962 C344.630,26.154 345.054,26.282 345.505,26.344 L345.505,27.257 L336.739,27.257 L336.739,26.344 ZM309.937,26.344 C310.599,26.219 311.093,26.083 311.417,25.934 C311.742,25.785 311.984,25.577 312.143,25.309 C312.302,25.042 312.381,24.685 312.381,24.238 C312.381,23.816 312.328,23.359 312.222,22.868 C312.116,22.378 311.964,21.828 311.765,21.219 L311.030,18.816 L301.767,18.816 L301.092,20.642 C300.747,21.561 300.522,22.257 300.416,22.729 C300.310,23.201 300.257,23.629 300.257,24.014 C300.257,24.760 300.459,25.306 300.863,25.654 C301.267,26.002 301.887,26.232 302.722,26.344 L302.722,27.257 L294.234,27.257 L294.234,26.344 C294.976,26.232 295.622,25.828 296.172,25.132 C296.722,24.437 297.255,23.443 297.772,22.151 L306.061,1.524 L309.201,1.524 L315.959,22.300 C316.277,23.269 316.559,24.008 316.804,24.518 C317.049,25.027 317.344,25.424 317.688,25.710 C318.033,25.996 318.503,26.207 319.100,26.344 L319.100,27.257 L309.937,27.257 L309.937,26.344 ZM306.836,5.176 L302.304,17.195 L310.612,17.195 L306.836,5.176 ZM289.584,5.772 C289.299,5.151 288.997,4.679 288.679,4.357 C288.361,4.033 288.020,3.804 287.656,3.667 C287.291,3.530 286.744,3.462 286.016,3.462 L283.492,3.462 L283.492,22.542 C283.492,23.275 283.534,23.859 283.621,24.294 C283.707,24.729 283.839,25.074 284.018,25.328 C284.197,25.583 284.439,25.782 284.744,25.924 C285.048,26.067 285.525,26.207 286.175,26.344 L286.175,27.257 L277.091,27.257 L277.091,26.344 C277.489,26.257 277.840,26.164 278.145,26.064 C278.449,25.965 278.698,25.844 278.890,25.701 C279.082,25.558 279.241,25.375 279.367,25.151 C279.493,24.927 279.592,24.623 279.665,24.238 C279.738,23.853 279.775,23.288 279.775,22.542 L279.775,3.462 L277.270,3.462 C276.647,3.462 276.134,3.518 275.730,3.630 C275.325,3.741 274.951,3.975 274.607,4.328 C274.262,4.682 273.947,5.186 273.663,5.838 C273.378,6.490 273.109,7.313 272.858,8.307 L270.890,8.307 L270.890,1.822 L292.396,1.822 L292.396,8.307 L290.448,8.307 C290.157,7.238 289.868,6.394 289.584,5.772 ZM249.007,26.344 C249.828,26.145 250.378,25.924 250.656,25.682 C250.935,25.440 251.117,25.095 251.203,24.648 C251.289,24.201 251.332,23.518 251.332,22.598 L251.332,6.481 C251.332,5.623 251.299,4.999 251.233,4.608 C251.167,4.217 251.057,3.912 250.905,3.695 C250.752,3.478 250.550,3.304 250.299,3.173 C250.047,3.043 249.616,2.897 249.007,2.735 L249.007,1.822 L257.395,1.822 L257.395,2.735 C256.811,2.872 256.391,3.009 256.132,3.145 C255.874,3.282 255.668,3.453 255.516,3.658 C255.364,3.863 255.251,4.170 255.178,4.580 C255.105,4.990 255.069,5.623 255.069,6.481 L255.069,22.598 C255.069,23.431 255.099,24.039 255.159,24.424 C255.218,24.810 255.318,25.114 255.457,25.337 C255.596,25.561 255.801,25.747 256.073,25.896 C256.344,26.045 256.785,26.195 257.395,26.344 L257.395,27.257 L249.007,27.257 L249.007,26.344 ZM237.429,26.344 C237.919,26.306 238.277,26.219 238.503,26.083 C238.728,25.946 238.840,25.741 238.840,25.468 C238.840,25.244 238.764,24.974 238.612,24.657 C238.459,24.340 238.218,23.958 237.886,23.511 L233.255,17.046 C232.712,16.275 232.314,15.766 232.063,15.518 C231.811,15.269 231.539,15.086 231.248,14.968 C230.956,14.850 230.565,14.791 230.075,14.791 L229.022,14.791 L229.022,22.598 C229.022,23.431 229.051,24.039 229.111,24.424 C229.171,24.810 229.270,25.114 229.409,25.337 C229.548,25.561 229.753,25.747 230.025,25.896 C230.297,26.045 230.737,26.195 231.347,26.344 L231.347,27.257 L222.979,27.257 L222.979,26.344 C223.800,26.145 224.350,25.924 224.629,25.682 C224.907,25.440 225.089,25.095 225.175,24.648 C225.261,24.201 225.304,23.518 225.304,22.598 L225.304,6.481 C225.304,5.623 225.271,4.999 225.205,4.608 C225.139,4.217 225.029,3.912 224.877,3.695 C224.725,3.478 224.523,3.304 224.271,3.173 C224.019,3.043 223.588,2.897 222.979,2.735 L222.979,1.822 L231.347,1.822 L231.347,2.735 C230.764,2.872 230.343,3.009 230.085,3.145 C229.827,3.282 229.621,3.453 229.469,3.658 C229.316,3.863 229.204,4.170 229.131,4.580 C229.058,4.990 229.022,5.623 229.022,6.481 L229.002,13.319 L229.598,13.319 C230.101,13.319 230.562,13.244 230.979,13.095 C231.397,12.946 231.864,12.667 232.381,12.257 C232.897,11.847 233.686,11.083 234.746,9.965 C236.018,8.636 236.886,7.673 237.350,7.077 C237.933,6.369 238.324,5.772 238.522,5.288 C238.681,4.928 238.761,4.580 238.761,4.244 C238.761,3.748 238.608,3.384 238.304,3.154 C237.999,2.925 237.581,2.785 237.052,2.735 L237.052,1.822 L245.718,1.822 L245.718,2.735 C245.294,2.822 244.876,2.975 244.465,3.192 C244.055,3.409 243.634,3.707 243.203,4.086 C242.773,4.465 242.140,5.089 241.305,5.959 L234.627,13.002 L241.862,22.859 C242.630,23.903 243.233,24.633 243.670,25.049 C244.108,25.465 244.525,25.769 244.923,25.962 C245.320,26.154 245.744,26.282 246.195,26.344 L246.195,27.257 L237.429,27.257 L237.429,26.344 ZM216.311,4.319 C216.205,4.742 216.152,5.462 216.152,6.481 L216.152,18.462 C216.152,19.816 216.019,20.984 215.755,21.965 C215.502,22.896 215.125,23.723 214.621,24.443 C214.157,25.089 213.581,25.639 212.892,26.092 C212.203,26.546 211.368,26.903 210.388,27.163 C209.407,27.424 208.254,27.555 206.929,27.555 C205.326,27.555 203.951,27.387 202.805,27.052 C201.659,26.716 200.711,26.167 199.963,25.403 C199.214,24.639 198.674,23.738 198.343,22.701 C198.011,21.664 197.846,20.344 197.846,18.741 L197.846,6.481 C197.846,5.512 197.813,4.856 197.746,4.515 C197.680,4.173 197.584,3.903 197.458,3.704 C197.332,3.506 197.150,3.335 196.912,3.192 C196.673,3.049 196.229,2.897 195.580,2.735 L195.580,1.822 L203.928,1.822 L203.928,2.735 C203.186,2.910 202.669,3.105 202.378,3.322 C202.086,3.540 201.887,3.866 201.781,4.300 C201.675,4.735 201.622,5.462 201.622,6.481 L201.622,19.673 C201.622,20.878 201.758,21.890 202.030,22.710 C202.301,23.530 202.682,24.167 203.172,24.620 C203.663,25.074 204.246,25.403 204.922,25.608 C205.598,25.813 206.439,25.915 207.446,25.915 C208.374,25.915 209.188,25.763 209.891,25.459 C210.593,25.154 211.179,24.692 211.650,24.070 C212.120,23.449 212.442,22.685 212.614,21.778 C212.786,20.872 212.872,19.654 212.872,18.126 L212.872,6.481 C212.872,5.400 212.816,4.661 212.703,4.263 C212.591,3.866 212.405,3.561 212.147,3.350 C211.888,3.139 211.355,2.934 210.547,2.735 L210.547,1.822 L218.477,1.822 L218.477,2.735 C217.709,2.922 217.182,3.127 216.897,3.350 C216.612,3.574 216.417,3.897 216.311,4.319 ZM173.368,26.344 L186.984,3.536 L179.768,3.536 C179.252,3.536 178.844,3.577 178.546,3.658 C178.248,3.739 177.980,3.863 177.741,4.030 C177.503,4.198 177.267,4.443 177.036,4.766 C176.803,5.089 176.571,5.533 176.340,6.099 C176.108,6.664 175.866,7.369 175.614,8.213 L173.666,8.213 L173.666,1.822 L191.595,1.822 L191.595,2.716 L178.000,25.542 L185.175,25.542 C186.062,25.542 186.722,25.465 187.153,25.309 C187.583,25.154 187.938,24.912 188.216,24.583 C188.494,24.254 188.746,23.791 188.971,23.195 C189.197,22.598 189.468,21.673 189.786,20.418 L191.734,20.418 L191.734,27.257 L173.368,27.257 L173.368,26.344 ZM161.552,26.344 C162.215,26.219 162.708,26.083 163.033,25.934 C163.358,25.785 163.599,25.577 163.759,25.309 C163.918,25.042 163.997,24.685 163.997,24.238 C163.997,23.816 163.944,23.359 163.838,22.868 C163.732,22.378 163.580,21.828 163.381,21.219 L162.646,18.816 L153.383,18.816 L152.707,20.642 C152.363,21.561 152.137,22.257 152.031,22.729 C151.925,23.201 151.872,23.629 151.872,24.014 C151.872,24.760 152.074,25.306 152.479,25.654 C152.883,26.002 153.502,26.232 154.337,26.344 L154.337,27.257 L145.850,27.257 L145.850,26.344 C146.592,26.232 147.238,25.828 147.788,25.132 C148.337,24.437 148.871,23.443 149.388,22.151 L157.676,1.524 L160.817,1.524 L167.575,22.300 C167.893,23.269 168.174,24.008 168.420,24.518 C168.665,25.027 168.959,25.424 169.304,25.710 C169.649,25.996 170.119,26.207 170.715,26.344 L170.715,27.257 L161.552,27.257 L161.552,26.344 ZM158.452,5.176 L153.920,17.195 L162.228,17.195 L158.452,5.176 ZM136.558,26.344 C137.048,26.306 137.406,26.219 137.631,26.083 C137.857,25.946 137.969,25.741 137.969,25.468 C137.969,25.244 137.893,24.974 137.741,24.657 C137.588,24.340 137.346,23.958 137.015,23.511 L132.384,17.046 C131.841,16.275 131.443,15.766 131.191,15.518 C130.940,15.269 130.668,15.086 130.376,14.968 C130.085,14.850 129.694,14.791 129.204,14.791 L128.150,14.791 L128.150,22.598 C128.150,23.431 128.180,24.039 128.240,24.424 C128.299,24.810 128.399,25.114 128.538,25.337 C128.677,25.561 128.882,25.747 129.154,25.896 C129.426,26.045 129.866,26.195 130.476,26.344 L130.476,27.257 L122.108,27.257 L122.108,26.344 C122.929,26.145 123.480,25.924 123.758,25.682 C124.036,25.440 124.218,25.095 124.304,24.648 C124.390,24.201 124.433,23.518 124.433,22.598 L124.433,6.481 C124.433,5.623 124.400,4.999 124.334,4.608 C124.268,4.217 124.158,3.912 124.006,3.695 C123.854,3.478 123.651,3.304 123.400,3.173 C123.148,3.043 122.717,2.897 122.108,2.735 L122.108,1.822 L130.476,1.822 L130.476,2.735 C129.893,2.872 129.472,3.009 129.214,3.145 C128.955,3.282 128.750,3.453 128.598,3.658 C128.445,3.863 128.332,4.170 128.260,4.580 C128.187,4.990 128.150,5.623 128.150,6.481 L128.130,13.319 L128.727,13.319 C129.230,13.319 129.691,13.244 130.108,13.095 C130.526,12.946 130.993,12.667 131.509,12.257 C132.026,11.847 132.814,11.083 133.875,9.965 C135.147,8.636 136.015,7.673 136.479,7.077 C137.062,6.369 137.453,5.772 137.651,5.288 C137.810,4.928 137.890,4.580 137.890,4.244 C137.890,3.748 137.737,3.384 137.433,3.154 C137.128,2.925 136.710,2.785 136.180,2.735 L136.180,1.822 L144.847,1.822 L144.847,2.735 C144.422,2.822 144.005,2.975 143.594,3.192 C143.183,3.409 142.763,3.707 142.332,4.086 C141.901,4.465 141.269,5.089 140.434,5.959 L133.755,13.002 L140.991,22.859 C141.759,23.903 142.362,24.633 142.799,25.049 C143.237,25.465 143.654,25.769 144.051,25.962 C144.449,26.154 144.873,26.282 145.324,26.344 L145.324,27.257 L136.558,27.257 L136.558,26.344 ZM104.873,26.493 C103.488,27.201 101.782,27.555 99.755,27.555 C96.853,27.555 94.663,26.710 93.186,25.021 C91.708,23.331 90.969,20.841 90.969,17.549 C90.969,15.338 91.340,13.270 92.082,11.344 C92.824,9.418 93.878,7.738 95.243,6.303 C96.607,4.869 98.191,3.739 99.993,2.912 C101.795,2.087 103.690,1.624 105.678,1.524 L106.493,2.549 L106.493,3.462 C104.452,3.462 102.643,3.872 101.067,4.692 C99.490,5.512 98.181,6.717 97.141,8.307 C96.101,9.897 95.369,11.785 94.945,13.971 L95.143,14.046 C96.257,13.300 97.353,12.754 98.433,12.406 C99.513,12.058 100.682,11.884 101.941,11.884 C103.439,11.884 104.714,12.192 105.767,12.806 C106.821,13.421 107.613,14.285 108.143,15.396 C108.673,16.508 108.938,17.810 108.938,19.300 C108.938,20.915 108.606,22.341 107.944,23.577 C107.281,24.813 106.258,25.785 104.873,26.493 ZM103.988,15.378 C103.180,14.353 102.041,13.841 100.570,13.841 C99.920,13.841 99.294,13.909 98.691,14.046 C98.088,14.183 97.522,14.381 96.992,14.642 C96.462,14.903 95.945,15.232 95.442,15.630 C95.283,15.766 95.163,15.909 95.084,16.058 C94.951,16.294 94.865,16.586 94.826,16.934 C94.786,17.282 94.766,17.865 94.766,18.685 C94.766,21.058 95.190,22.866 96.038,24.108 C96.886,25.350 98.171,25.971 99.894,25.971 C100.888,25.971 101.723,25.809 102.398,25.486 C103.074,25.164 103.621,24.720 104.038,24.154 C104.455,23.589 104.754,22.924 104.933,22.160 C105.111,21.397 105.201,20.567 105.201,19.673 C105.201,17.835 104.797,16.403 103.988,15.378 ZM83.256,25.328 C81.321,26.589 79.062,27.331 76.478,27.555 L75.663,26.530 L75.663,25.617 C77.518,25.617 79.124,25.232 80.483,24.462 C81.841,23.692 82.934,22.552 83.762,21.042 C84.590,19.533 85.144,17.555 85.422,15.108 L85.223,15.033 C84.110,15.779 83.014,16.325 81.934,16.673 C80.854,17.021 79.684,17.195 78.425,17.195 C76.928,17.195 75.653,16.887 74.599,16.272 C73.546,15.657 72.754,14.794 72.224,13.682 C71.694,12.571 71.429,11.269 71.429,9.779 C71.429,8.661 71.628,7.602 72.025,6.602 C72.423,5.602 73.012,4.726 73.794,3.975 C74.576,3.223 75.553,2.627 76.726,2.186 C77.899,1.745 79.267,1.524 80.831,1.524 C83.613,1.524 85.733,2.425 87.191,4.226 C88.649,6.027 89.378,8.617 89.378,11.996 C89.378,15.089 88.841,17.770 87.768,20.036 C86.694,22.303 85.190,24.067 83.256,25.328 ZM85.054,6.769 C84.690,5.558 84.133,4.645 83.385,4.030 C82.636,3.415 81.712,3.108 80.612,3.108 C79.618,3.108 78.777,3.269 78.088,3.592 C77.399,3.915 76.839,4.359 76.408,4.925 C75.977,5.490 75.663,6.154 75.464,6.918 C75.265,7.682 75.166,8.511 75.166,9.406 C75.166,11.257 75.570,12.692 76.378,13.710 C77.186,14.729 78.326,15.238 79.797,15.238 C80.300,15.238 80.781,15.198 81.238,15.117 C81.695,15.036 82.142,14.918 82.580,14.763 C83.017,14.608 83.444,14.409 83.862,14.167 C84.279,13.924 84.654,13.667 84.985,13.393 C85.104,13.294 85.210,13.164 85.303,13.002 C85.395,12.841 85.468,12.629 85.521,12.369 C85.574,12.108 85.601,11.698 85.601,11.139 C85.601,9.437 85.419,7.980 85.054,6.769 ZM63.311,25.328 C61.376,26.589 59.117,27.331 56.533,27.555 L55.718,26.530 L55.718,25.617 C57.573,25.617 59.180,25.232 60.538,24.462 C61.896,23.692 62.989,22.552 63.818,21.042 C64.646,19.533 65.199,17.555 65.477,15.108 L65.279,15.033 C64.165,15.779 63.069,16.325 61.989,16.673 C60.909,17.021 59.740,17.195 58.481,17.195 C56.983,17.195 55.708,16.887 54.655,16.272 C53.601,15.657 52.809,14.794 52.279,13.682 C51.749,12.571 51.484,11.269 51.484,9.779 C51.484,8.661 51.683,7.602 52.081,6.602 C52.478,5.602 53.068,4.726 53.850,3.975 C54.631,3.223 55.609,2.627 56.781,2.186 C57.954,1.745 59.322,1.524 60.886,1.524 C63.669,1.524 65.789,2.425 67.246,4.226 C68.704,6.027 69.433,8.617 69.433,11.996 C69.433,15.089 68.896,17.770 67.823,20.036 C66.749,22.303 65.245,24.067 63.311,25.328 ZM65.110,6.769 C64.745,5.558 64.188,4.645 63.440,4.030 C62.691,3.415 61.767,3.108 60.667,3.108 C59.673,3.108 58.832,3.269 58.143,3.592 C57.454,3.915 56.894,4.359 56.463,4.925 C56.033,5.490 55.718,6.154 55.519,6.918 C55.320,7.682 55.221,8.511 55.221,9.406 C55.221,11.257 55.625,12.692 56.434,13.710 C57.242,14.729 58.381,15.238 59.852,15.238 C60.356,15.238 60.836,15.198 61.293,15.117 C61.750,15.036 62.198,14.918 62.635,14.763 C63.072,14.608 63.500,14.409 63.917,14.167 C64.334,13.924 64.709,13.667 65.040,13.393 C65.159,13.294 65.265,13.164 65.358,13.002 C65.451,12.841 65.524,12.629 65.577,12.369 C65.630,12.108 65.656,11.698 65.656,11.139 C65.656,9.437 65.474,7.980 65.110,6.769 ZM35.887,25.896 C37.358,25.834 38.408,25.751 39.037,25.645 C39.666,25.539 40.147,25.381 40.478,25.170 C40.809,24.959 41.051,24.660 41.204,24.275 C41.356,23.890 41.432,23.263 41.432,22.393 L41.432,7.282 C41.432,6.785 41.339,6.422 41.154,6.192 C40.968,5.962 40.697,5.847 40.339,5.847 C39.915,5.847 39.312,6.052 38.530,6.462 C37.748,6.872 36.781,7.437 35.628,8.157 L34.754,6.723 L44.056,1.524 L45.149,1.524 C45.070,2.716 45.030,4.369 45.030,6.481 L45.030,22.393 C45.030,23.114 45.073,23.658 45.159,24.024 C45.245,24.390 45.398,24.688 45.617,24.918 C45.835,25.148 46.150,25.328 46.560,25.459 C46.971,25.589 47.488,25.689 48.111,25.757 C48.734,25.825 49.555,25.872 50.576,25.896 L50.576,27.257 L35.887,27.257 L35.887,25.896 ZM26.658,24.803 C25.273,26.095 23.650,27.089 21.788,27.784 C19.927,28.480 17.942,28.828 15.835,28.828 C13.755,28.828 11.797,28.493 9.962,27.822 C8.126,27.151 6.510,26.179 5.112,24.906 C3.714,23.632 2.631,22.114 1.862,20.350 C1.094,18.586 0.709,16.692 0.709,14.667 C0.709,12.642 1.094,10.748 1.862,8.984 C2.631,7.220 3.717,5.701 5.122,4.428 C6.526,3.154 8.143,2.182 9.972,1.512 C11.800,0.841 13.755,0.505 15.835,0.505 C17.942,0.505 19.927,0.853 21.788,1.549 C23.650,2.245 25.273,3.238 26.658,4.530 C28.043,5.822 29.106,7.335 29.848,9.067 C30.590,10.800 30.961,12.667 30.961,14.667 C30.961,16.667 30.590,18.533 29.848,20.266 C29.106,21.999 28.043,23.511 26.658,24.803 ZM26.887,8.331 C25.826,6.443 24.326,4.974 22.385,3.925 C20.443,2.875 18.253,2.350 15.816,2.350 C13.377,2.350 11.187,2.878 9.246,3.934 C7.305,4.990 5.811,6.459 4.764,8.341 C3.717,10.223 3.194,12.331 3.194,14.667 C3.194,17.039 3.727,19.166 4.794,21.049 C5.861,22.931 7.358,24.393 9.286,25.437 C11.214,26.480 13.391,27.002 15.816,27.002 C18.253,27.002 20.440,26.477 22.375,25.427 C24.309,24.378 25.810,22.909 26.877,21.021 C27.943,19.133 28.477,17.014 28.477,14.667 C28.477,12.331 27.947,10.220 26.887,8.331 ZM15.662,23.569 C12.998,23.569 10.982,22.826 9.615,21.339 C8.248,19.853 7.564,17.656 7.564,14.749 C7.564,12.938 7.910,11.349 8.600,9.981 C9.291,8.614 10.306,7.553 11.645,6.800 C12.984,6.047 14.577,5.670 16.424,5.670 C17.608,5.670 18.651,5.757 19.553,5.928 C20.455,6.100 21.336,6.378 22.196,6.761 L22.196,10.487 L20.399,10.487 C20.074,9.628 19.725,8.961 19.352,8.485 C18.978,8.009 18.545,7.669 18.052,7.464 C17.558,7.260 16.882,7.157 16.022,7.157 C15.049,7.157 14.200,7.428 13.474,7.970 C12.748,8.512 12.184,9.328 11.783,10.418 C11.381,11.508 11.180,12.826 11.180,14.372 C11.180,15.429 11.268,16.424 11.444,17.355 C11.620,18.287 11.906,19.106 12.301,19.813 C12.695,20.520 13.206,21.075 13.834,21.478 C14.461,21.881 15.232,22.083 16.149,22.083 C17.276,22.083 18.164,21.815 18.813,21.280 C19.461,20.745 19.997,19.843 20.420,18.574 L22.217,18.574 L22.217,22.420 C21.146,22.856 20.113,23.156 19.120,23.322 C18.126,23.487 16.973,23.569 15.662,23.569 Z"/>
</svg>