<svg 
 xmlns="http://www.w3.org/2000/svg"
 xmlns:xlink="http://www.w3.org/1999/xlink"
 width="742px" height="33px">
<path fill-rule="evenodd"  fill="rgb(255, 255, 255)"
 d="M738.820,28.349 L738.820,2.714 L741.318,2.714 L741.318,28.349 L738.820,28.349 ZM724.899,11.358 C724.899,10.832 724.932,9.813 724.997,8.301 C725.041,6.965 725.085,5.946 725.129,5.244 L725.030,5.244 C724.986,5.530 724.899,5.913 724.767,6.395 C724.679,6.745 724.581,7.096 724.471,7.447 L716.781,28.349 L714.480,28.349 L706.790,7.578 L706.461,6.461 C706.308,5.979 706.198,5.573 706.132,5.244 L706.034,5.244 C706.078,5.770 706.121,6.768 706.165,8.235 C706.209,9.594 706.231,10.656 706.231,11.423 L706.231,28.349 L703.996,28.349 L703.996,2.714 L707.348,2.714 L714.678,22.302 C715.138,23.595 715.444,24.614 715.598,25.358 L715.663,25.358 C715.795,24.701 716.101,23.693 716.584,22.335 L723.880,2.714 L727.199,2.714 L727.199,28.349 L724.899,28.349 L724.899,11.358 ZM694.349,20.264 L683.339,20.264 L680.315,28.349 L677.752,28.349 L687.316,2.714 L690.372,2.714 L699.903,28.349 L697.340,28.349 L694.349,20.264 ZM693.363,17.470 L688.828,5.014 L684.062,18.161 L693.626,18.161 C693.604,18.095 693.516,17.865 693.363,17.470 ZM658.117,8.005 C657.744,7.326 657.394,6.395 657.066,5.212 L656.967,5.212 L657.098,6.921 C657.142,7.688 657.164,8.356 657.164,8.925 L657.164,28.349 L654.831,28.349 L654.831,2.714 L657.920,2.714 L669.785,22.992 C670.354,24.066 670.748,24.986 670.968,25.753 L671.066,25.753 L670.869,24.142 C670.803,23.376 670.771,22.773 670.771,22.335 L670.771,2.714 L673.104,2.714 L673.104,28.349 L669.982,28.349 L658.117,8.005 ZM636.938,28.875 C633.541,28.875 630.847,27.527 628.853,24.832 C626.990,22.357 626.059,19.245 626.059,15.499 C626.059,11.774 626.990,8.674 628.853,6.198 C630.847,3.525 633.541,2.188 636.938,2.188 C640.356,2.188 643.062,3.525 645.056,6.198 C646.918,8.674 647.849,11.774 647.849,15.499 C647.849,19.245 646.918,22.357 645.056,24.832 C643.062,27.527 640.356,28.875 636.938,28.875 ZM643.150,7.545 C641.572,5.420 639.501,4.357 636.938,4.357 C634.418,4.357 632.370,5.420 630.792,7.545 C629.236,9.627 628.459,12.278 628.459,15.499 C628.459,18.719 629.225,21.371 630.759,23.452 C632.337,25.621 634.396,26.706 636.938,26.706 C639.479,26.706 641.539,25.621 643.117,23.452 C644.650,21.371 645.417,18.719 645.417,15.499 C645.417,12.256 644.661,9.605 643.150,7.545 ZM620.801,28.349 L610.415,14.940 L607.129,18.128 L607.129,28.349 L604.730,28.349 L604.730,2.714 L607.129,2.714 L607.129,15.071 L619.782,2.714 L622.773,2.714 L612.059,13.264 L623.693,28.349 L620.801,28.349 ZM588.471,14.052 L592.383,14.052 L592.383,18.062 L588.471,18.062 L588.471,14.052 ZM571.305,25.391 C569.837,24.340 568.303,23.113 566.704,21.710 L568.018,20.297 C569.223,21.480 570.626,22.609 572.225,23.682 C573.627,24.625 574.997,25.413 576.333,26.049 L574.986,27.856 C573.824,27.177 572.598,26.356 571.305,25.391 ZM547.707,3.963 L560.689,3.963 L560.689,1.235 L562.760,1.235 L562.760,3.963 L575.643,3.963 L575.643,5.935 L547.707,5.935 L547.707,3.963 ZM555.332,20.396 L556.713,21.612 C555.661,22.795 554.379,23.934 552.867,25.030 C552.231,25.512 551.498,26.016 550.665,26.542 C550.008,26.958 549.197,27.451 548.233,28.020 L546.951,26.246 C548.858,25.304 550.523,24.329 551.947,23.321 C553.262,22.400 554.390,21.426 555.332,20.396 ZM533.641,23.715 C534.626,24.329 535.678,24.909 536.796,25.457 C538.045,26.049 539.392,26.586 540.838,27.067 L539.655,29.006 C538.209,28.393 536.850,27.725 535.580,27.002 C534.440,26.323 533.356,25.600 532.326,24.832 C531.427,24.131 530.573,23.386 529.762,22.598 C529.061,21.919 528.360,21.174 527.659,20.363 L527.067,20.363 L527.067,30.814 L525.095,30.814 L525.095,20.363 L524.438,20.363 C523.781,21.239 523.200,21.952 522.696,22.499 C521.995,23.266 521.250,23.978 520.461,24.635 C519.519,25.402 518.445,26.136 517.241,26.837 C515.882,27.626 514.326,28.404 512.574,29.171 L511.390,27.232 C512.792,26.750 514.107,26.202 515.334,25.588 C516.452,25.063 517.492,24.482 518.457,23.847 C520.100,22.751 521.425,21.590 522.433,20.363 L514.644,20.363 L514.644,8.367 L525.095,8.367 L525.095,5.770 L512.114,5.770 L512.114,3.864 L525.095,3.864 L525.095,1.235 L527.067,1.235 L527.067,3.864 L540.115,3.864 L540.115,5.770 L527.067,5.770 L527.067,8.367 L537.519,8.367 L537.519,20.363 L529.598,20.363 C530.145,20.933 530.716,21.469 531.307,21.973 C532.030,22.587 532.808,23.168 533.641,23.715 ZM525.095,10.273 L516.616,10.273 L516.616,13.428 L525.095,13.428 L525.095,10.273 ZM525.095,15.170 L516.616,15.170 L516.616,18.457 L525.095,18.457 L525.095,15.170 ZM535.547,10.273 L527.067,10.273 L527.067,13.428 L535.547,13.428 L535.547,10.273 ZM535.547,18.457 L535.547,15.170 L527.067,15.170 L527.067,18.457 L535.547,18.457 ZM502.352,2.812 L503.535,1.826 C504.916,2.878 506.077,3.908 507.019,4.916 L505.836,6.000 C504.828,4.883 503.667,3.820 502.352,2.812 ZM503.108,7.315 C502.188,6.263 501.059,5.168 499.723,4.028 L500.840,3.042 C502.067,4.007 503.228,5.069 504.324,6.230 L503.108,7.315 ZM501.498,8.071 L503.075,10.010 C501.498,10.646 499.876,11.237 498.211,11.785 C496.634,12.311 494.990,12.804 493.281,13.264 C491.725,13.680 490.071,14.097 488.319,14.512 C486.785,14.841 485.098,15.192 483.257,15.564 L483.224,19.475 C483.224,20.264 483.235,21.108 483.257,22.006 C483.257,22.642 483.268,23.398 483.290,24.274 C483.312,25.150 483.476,25.720 483.783,25.983 C484.090,26.246 484.791,26.421 485.886,26.509 C486.938,26.596 488.680,26.640 491.112,26.640 C493.610,26.640 495.965,26.586 498.178,26.476 C500.808,26.344 502.878,26.147 504.390,25.884 L504.127,28.250 C500.621,28.469 496.601,28.579 492.065,28.579 C490.751,28.579 489.600,28.568 488.614,28.546 C487.497,28.524 486.555,28.491 485.788,28.448 C483.991,28.360 482.775,27.999 482.140,27.363 C481.526,26.794 481.220,25.786 481.220,24.340 L481.351,9.681 C481.351,7.140 481.318,4.938 481.252,3.075 L483.717,3.108 C483.586,4.511 483.487,6.176 483.422,8.104 C483.356,9.747 483.301,11.588 483.257,13.625 C486.150,13.165 489.315,12.409 492.755,11.358 C496.261,10.306 499.175,9.210 501.498,8.071 ZM456.899,26.509 C454.576,27.605 452.177,28.535 449.701,29.302 L448.387,27.692 L448.551,19.443 C448.573,17.865 448.584,16.419 448.584,15.104 C448.605,13.571 448.617,12.146 448.617,10.832 C448.617,9.210 448.605,7.764 448.584,6.493 C448.562,5.047 448.529,3.765 448.485,2.648 L450.983,2.681 C450.895,4.237 450.807,6.132 450.720,8.367 L450.589,14.940 C450.545,17.043 450.512,19.202 450.490,21.414 C450.468,23.365 450.457,25.150 450.457,26.771 C454.182,25.786 458.115,23.967 462.256,21.316 C466.353,18.665 469.585,15.893 471.951,13.001 L473.167,14.710 C470.407,17.799 467.109,20.571 463.275,23.025 C461.237,24.318 459.112,25.479 456.899,26.509 ZM426.794,14.414 C426.750,16.320 426.597,18.008 426.334,19.475 C426.027,21.097 425.566,22.554 424.953,23.847 C423.595,26.651 421.305,28.853 418.084,30.452 L415.915,28.743 C417.559,28.218 418.972,27.484 420.155,26.542 C421.250,25.665 422.148,24.614 422.850,23.386 C423.463,22.269 423.923,21.020 424.230,19.640 C424.493,18.391 424.625,17.033 424.625,15.564 C424.625,15.061 424.613,14.677 424.592,14.414 L416.704,14.447 C414.316,14.469 412.234,14.502 410.459,14.546 L410.459,12.475 C413.899,12.585 418.292,12.639 423.639,12.639 C429.510,12.639 434.473,12.585 438.527,12.475 L438.527,14.546 C437.168,14.502 435.426,14.469 433.301,14.447 C431.417,14.425 429.247,14.414 426.794,14.414 ZM424.263,5.803 C420.341,5.803 417.197,5.836 414.831,5.902 L414.831,3.897 C415.860,3.941 417.197,3.974 418.840,3.995 C420.264,4.018 421.897,4.028 423.737,4.028 C425.775,4.028 427.626,4.018 429.291,3.995 C431.176,3.974 432.764,3.941 434.057,3.897 L434.057,5.935 C432.852,5.891 431.351,5.858 429.555,5.836 C427.977,5.815 426.213,5.803 424.263,5.803 ZM397.031,14.052 L400.942,14.052 L400.942,18.062 L397.031,18.062 L397.031,14.052 ZM371.606,27.626 L379.297,27.626 L379.297,13.658 L372.822,13.658 L372.822,11.686 L379.297,11.686 L379.297,1.235 L381.335,1.235 L381.335,11.686 L387.481,11.686 L387.481,13.658 L381.335,13.658 L381.335,27.626 L388.269,27.626 L388.269,29.598 L371.606,29.598 L371.606,27.626 ZM372.559,18.325 L371.541,19.968 C370.752,19.355 369.974,18.654 369.207,17.865 C368.572,17.186 367.969,16.485 367.400,15.761 L367.400,30.814 L365.493,30.814 L365.493,17.240 C364.705,18.008 363.773,18.774 362.700,19.541 C361.757,20.220 360.728,20.878 359.610,21.513 L358.657,19.607 C359.555,19.191 360.541,18.632 361.615,17.931 C362.820,17.164 363.949,16.320 365.000,15.400 C366.205,14.348 367.224,13.286 368.057,12.212 C369.021,10.985 369.700,9.791 370.095,8.630 L360.235,8.630 L360.235,6.723 L365.493,6.723 L365.493,1.235 L367.400,1.235 L367.400,6.723 L372.165,6.723 L372.165,8.564 L371.935,9.155 C371.716,9.660 371.486,10.153 371.245,10.634 C370.894,11.336 370.522,11.993 370.127,12.606 C369.623,13.374 369.109,14.042 368.583,14.611 C368.999,15.159 369.481,15.707 370.029,16.254 C370.796,16.999 371.639,17.690 372.559,18.325 ZM354.393,28.776 L353.308,30.781 C351.818,30.474 350.514,30.124 349.397,29.729 C348.126,29.269 346.965,28.721 345.913,28.086 C343.613,26.640 341.564,24.493 339.767,21.645 C338.562,24.011 336.919,25.906 334.838,27.330 C332.734,28.776 329.864,29.927 326.227,30.781 L324.945,28.809 C328.472,28.218 331.387,27.188 333.687,25.720 C335.768,24.384 337.237,22.784 338.091,20.922 L325.109,20.922 L325.109,18.949 L329.217,18.949 L329.217,10.963 L338.683,10.963 L338.683,8.170 L340.721,8.170 L340.721,10.963 L350.219,10.963 L350.219,18.949 L354.130,18.949 L354.130,20.922 L341.378,20.922 C342.714,23.113 344.379,24.822 346.373,26.049 C348.477,27.342 351.150,28.250 354.393,28.776 ZM338.683,12.869 L331.255,12.869 L331.255,18.949 L338.551,18.949 C338.639,18.512 338.683,18.074 338.683,17.635 L338.683,12.869 ZM348.181,18.949 L348.181,12.869 L340.721,12.869 L340.721,17.635 C340.721,18.008 340.688,18.446 340.622,18.949 L348.181,18.949 ZM345.848,9.024 L343.876,9.024 L343.876,5.935 L335.330,5.935 L335.330,9.024 L333.358,9.024 L333.358,5.935 L325.471,5.935 L325.471,4.028 L333.358,4.028 L333.358,1.235 L335.330,1.235 L335.330,4.028 L343.876,4.028 L343.876,1.235 L345.848,1.235 L345.848,4.028 L353.735,4.028 L353.735,5.935 L345.848,5.935 L345.848,9.024 ZM319.549,28.086 L318.431,29.959 C313.830,28.316 309.755,25.753 306.205,22.269 L305.745,22.269 L305.745,30.814 L303.806,30.814 L303.806,22.269 L303.346,22.269 C302.689,23.058 302.020,23.759 301.341,24.372 C300.574,25.095 299.741,25.753 298.843,26.344 C296.827,27.681 294.242,28.886 291.087,29.959 L290.002,28.086 C291.426,27.714 292.763,27.276 294.012,26.771 C295.151,26.311 296.203,25.808 297.167,25.260 C298.022,24.778 298.810,24.274 299.534,23.748 C300.147,23.266 300.705,22.773 301.210,22.269 L290.758,22.269 L290.758,20.461 L303.806,20.461 L303.806,18.128 L294.702,18.128 L294.702,8.498 C293.541,9.725 292.281,10.810 290.923,11.752 L290.035,9.977 C291.153,9.254 292.226,8.356 293.256,7.282 C294.067,6.406 294.823,5.442 295.524,4.390 C296.050,3.645 296.510,2.889 296.904,2.122 C297.211,1.553 297.364,1.246 297.364,1.202 L299.172,1.761 C299.172,1.805 299.073,2.024 298.876,2.418 C298.766,2.681 298.646,2.944 298.515,3.207 C298.339,3.535 298.153,3.864 297.956,4.193 L305.318,4.193 C305.865,3.514 306.326,2.812 306.698,2.089 L307.093,1.202 L308.900,1.761 C308.900,1.805 308.802,2.046 308.605,2.484 L308.177,3.240 C308.002,3.568 307.816,3.886 307.618,4.193 L317.314,4.193 L317.314,5.902 L306.928,5.902 L306.928,8.400 L316.065,8.400 L316.065,9.879 L306.928,9.879 L306.928,12.475 L316.065,12.475 L316.065,13.954 L306.928,13.954 L306.928,16.485 L317.577,16.485 L317.577,18.128 L305.745,18.128 L305.745,20.461 L318.760,20.461 L318.760,22.269 L308.539,22.269 C310.028,23.606 311.573,24.712 313.173,25.588 C314.991,26.574 317.117,27.407 319.549,28.086 ZM304.956,5.902 L296.674,5.902 L296.674,8.400 L304.956,8.400 L304.956,5.902 ZM304.956,9.879 L296.674,9.879 L296.674,12.475 L304.956,12.475 L304.956,9.879 ZM304.956,13.954 L296.674,13.954 L296.674,16.485 L304.956,16.485 L304.956,13.954 ZM258.653,30.803 L283.920,1.957 L286.016,1.957 L260.748,30.803 L258.653,30.803 ZM252.155,26.870 L250.248,28.546 C249.109,27.166 247.499,25.621 245.417,23.912 C244.541,23.189 243.598,22.445 242.591,21.677 C241.692,21.020 240.772,20.363 239.830,19.705 C238.253,21.502 236.478,23.168 234.506,24.701 C232.424,26.301 230.090,27.780 227.505,29.138 L225.599,27.462 C227.966,26.498 230.244,25.216 232.435,23.616 C234.516,22.127 236.445,20.418 238.220,18.489 C241.725,14.699 244.135,10.766 245.450,6.691 L237.891,6.691 C236.729,6.691 235.645,6.702 234.637,6.723 C232.249,6.745 230.321,6.789 228.853,6.855 L228.853,4.719 C230.321,4.763 231.789,4.796 233.257,4.817 C235.075,4.839 236.784,4.850 238.384,4.850 C240.049,4.850 241.495,4.839 242.722,4.817 C244.234,4.796 245.516,4.751 246.568,4.686 L248.145,5.869 C247.137,8.301 246.085,10.481 244.990,12.409 C243.785,14.557 242.470,16.517 241.046,18.292 C242.886,19.475 244.760,20.790 246.666,22.236 C248.704,23.814 250.533,25.358 252.155,26.870 ZM214.870,30.025 L212.537,30.058 C212.581,28.371 212.613,26.498 212.635,24.438 C212.657,22.598 212.668,20.604 212.668,18.457 L212.668,15.466 C212.668,14.348 212.657,13.362 212.635,12.508 C210.707,13.888 208.670,15.225 206.523,16.517 C204.485,17.723 202.326,18.906 200.048,20.067 L198.372,18.259 C202.381,16.595 206.665,14.173 211.222,10.996 C213.457,9.440 215.440,7.896 217.171,6.362 C219.011,4.741 220.436,3.240 221.444,1.859 L223.481,3.174 C220.896,5.891 218.025,8.444 214.870,10.832 C214.695,17.186 214.695,23.584 214.870,30.025 ZM196.366,1.333 L197.550,0.347 C198.930,1.399 200.091,2.429 201.034,3.437 L199.850,4.521 C198.842,3.404 197.681,2.341 196.366,1.333 ZM196.399,5.277 C195.479,4.226 194.350,3.130 193.014,1.991 L194.132,1.005 C195.359,1.969 196.520,3.032 197.615,4.193 L196.399,5.277 ZM198.043,7.381 C195.676,13.910 192.729,18.851 189.202,22.203 C185.718,25.534 180.733,28.185 174.248,30.157 L172.605,28.250 C179.046,26.936 184.305,24.241 188.380,20.166 C187.263,19.202 186.035,18.259 184.699,17.339 C183.494,16.507 182.223,15.707 180.887,14.940 L182.333,13.560 C183.691,14.348 184.929,15.104 186.047,15.827 C187.427,16.726 188.697,17.624 189.859,18.522 C192.357,15.587 194.230,12.125 195.479,8.137 L185.356,8.202 L181.577,8.268 C180.481,9.780 179.309,11.193 178.060,12.508 C176.701,13.932 175.245,15.236 173.689,16.419 L171.980,14.907 C173.382,13.987 174.686,12.979 175.891,11.883 C176.986,10.876 177.995,9.780 178.915,8.597 C179.747,7.567 180.525,6.450 181.248,5.244 C181.861,4.215 182.453,3.087 183.023,1.859 L185.192,2.418 C184.425,3.843 183.647,5.179 182.859,6.428 L189.958,6.461 C190.768,6.439 191.524,6.428 192.225,6.428 C193.869,6.384 195.315,6.329 196.564,6.263 L198.043,7.381 ZM160.566,14.052 L164.477,14.052 L164.477,18.062 L160.566,18.062 L160.566,14.052 ZM147.259,10.306 L147.489,21.842 C147.533,22.762 147.566,23.726 147.588,24.734 L147.588,25.457 C147.588,26.925 147.270,27.955 146.635,28.546 C145.802,29.291 144.202,29.697 141.836,29.762 L140.850,27.265 C141.705,27.396 142.428,27.462 143.019,27.462 C144.662,27.462 145.484,26.706 145.484,25.194 L145.287,10.306 L144.104,10.306 C142.592,13.505 140.664,16.419 138.319,19.048 C135.822,21.875 132.907,24.296 129.577,26.311 L127.539,24.832 C129.161,24.000 130.727,23.003 132.239,21.842 C133.685,20.746 135.033,19.530 136.282,18.193 C138.714,15.630 140.543,13.001 141.770,10.306 L134.310,10.372 C131.812,10.416 129.752,10.459 128.131,10.503 L128.131,8.465 C130.081,8.510 132.174,8.542 134.408,8.564 L145.254,8.597 C145.232,7.501 145.199,6.351 145.156,5.146 C145.133,4.204 145.090,3.207 145.024,2.155 L147.193,2.188 L147.193,5.146 C147.193,6.373 147.204,7.524 147.226,8.597 C148.124,8.597 148.837,8.586 149.362,8.564 C150.129,8.564 150.808,8.553 151.400,8.531 L154.982,8.465 L154.982,10.437 C153.799,10.394 152.638,10.361 151.499,10.339 C150.053,10.317 148.639,10.306 147.259,10.306 ZM96.434,29.204 L95.448,26.936 C98.494,26.607 101.331,25.983 103.961,25.063 C106.458,24.164 108.737,23.003 110.797,21.579 C112.769,20.220 114.532,18.632 116.088,16.813 C117.556,15.104 118.838,13.187 119.933,11.062 L121.347,12.968 C118.586,17.526 115.343,21.042 111.618,23.518 C107.718,26.126 102.657,28.020 96.434,29.204 ZM116.351,2.418 L117.534,1.432 C118.915,2.484 120.076,3.514 121.018,4.521 L119.835,5.606 C118.827,4.488 117.666,3.426 116.351,2.418 ZM117.534,7.447 C116.614,6.395 115.485,5.299 114.149,4.160 L115.266,3.174 C116.493,4.138 117.654,5.201 118.750,6.362 L117.534,7.447 ZM98.111,4.653 L99.359,3.042 C101.967,4.051 104.333,5.146 106.458,6.329 L105.078,8.071 C102.778,6.625 100.455,5.486 98.111,4.653 ZM101.397,15.696 C99.074,14.315 96.796,13.187 94.561,12.311 L95.580,10.667 C98.034,11.632 100.389,12.716 102.646,13.921 L101.397,15.696 ZM68.155,30.157 L66.512,28.250 C72.954,26.936 78.212,24.241 82.288,20.166 C81.170,19.202 79.943,18.259 78.607,17.339 C77.401,16.507 76.131,15.707 74.794,14.940 L76.240,13.560 C77.599,14.348 78.837,15.104 79.954,15.827 C81.335,16.726 82.605,17.624 83.767,18.522 C86.264,15.587 88.138,12.125 89.387,8.137 L79.264,8.202 L75.484,8.268 C74.389,9.780 73.217,11.193 71.968,12.508 C70.609,13.932 69.152,15.236 67.597,16.419 L65.888,14.907 C67.290,13.987 68.593,12.979 69.799,11.883 C70.894,10.876 71.902,9.780 72.822,8.597 C73.655,7.567 74.433,6.450 75.156,5.244 C75.769,4.215 76.361,3.087 76.931,1.859 L79.100,2.418 C78.332,3.843 77.555,5.179 76.766,6.428 L83.865,6.461 C84.676,6.439 85.431,6.428 86.133,6.428 C87.776,6.384 89.222,6.329 90.471,6.263 L91.950,7.381 C89.584,13.910 86.637,18.851 83.109,22.203 C79.625,25.534 74.641,28.185 68.155,30.157 ZM61.493,26.870 L59.587,28.546 C58.447,27.166 56.837,25.621 54.755,23.912 C53.879,23.189 52.936,22.445 51.929,21.677 C51.030,21.020 50.110,20.363 49.168,19.705 C47.591,21.502 45.816,23.168 43.844,24.701 C41.762,26.301 39.429,27.780 36.844,29.138 L34.937,27.462 C37.304,26.498 39.582,25.216 41.773,23.616 C43.855,22.127 45.783,20.418 47.558,18.489 C51.063,14.699 53.474,10.766 54.788,6.691 L47.229,6.691 C46.067,6.691 44.983,6.702 43.975,6.723 C41.587,6.745 39.659,6.789 38.191,6.855 L38.191,4.719 C39.659,4.763 41.127,4.796 42.595,4.817 C44.413,4.839 46.122,4.850 47.722,4.850 C49.387,4.850 50.833,4.839 52.060,4.817 C53.572,4.796 54.854,4.751 55.906,4.686 L57.483,5.869 C56.475,8.301 55.423,10.481 54.328,12.409 C53.123,14.557 51.808,16.517 50.384,18.292 C52.225,19.475 54.098,20.790 56.004,22.236 C58.042,23.814 59.871,25.358 61.493,26.870 ZM16.675,32.830 C12.195,32.830 8.380,31.241 5.232,28.062 C2.054,24.914 0.465,21.100 0.465,16.620 C0.465,12.140 2.054,8.326 5.232,5.177 C8.380,1.998 12.195,0.409 16.675,0.409 C21.155,0.409 24.985,1.998 28.163,5.177 C31.342,8.326 32.931,12.140 32.931,16.620 C32.931,21.100 31.342,24.914 28.163,28.062 C24.985,31.241 21.155,32.830 16.675,32.830 ZM26.846,6.494 C24.061,3.678 20.686,2.271 16.721,2.271 C12.785,2.271 9.410,3.678 6.595,6.494 C3.779,9.279 2.372,12.654 2.372,16.620 C2.372,20.555 3.779,23.930 6.595,26.746 C9.410,29.561 12.785,30.968 16.721,30.968 C20.686,30.968 24.061,29.561 26.846,26.746 C29.662,23.930 31.069,20.555 31.069,16.620 C31.069,12.654 29.662,9.279 26.846,6.494 ZM17.176,25.246 C20.032,25.246 22.132,24.147 23.475,21.950 L24.574,24.038 C22.791,26.308 20.252,27.443 16.956,27.443 C14.173,27.443 11.865,26.565 10.034,24.807 C8.032,22.902 7.031,20.278 7.031,16.933 C7.031,13.636 8.020,11.024 9.998,9.095 C11.829,7.337 14.148,6.458 16.956,6.458 C20.252,6.458 22.755,7.557 24.464,9.754 L23.365,11.952 C21.998,9.754 19.935,8.656 17.176,8.656 C15.174,8.656 13.464,9.315 12.049,10.633 C10.412,12.147 9.595,14.247 9.595,16.933 C9.595,19.594 10.401,21.694 12.012,23.232 C13.428,24.575 15.149,25.246 17.176,25.246 ZM560.656,28.481 C561.160,28.328 561.412,27.900 561.412,27.199 L561.412,18.719 L551.421,18.719 L551.421,9.649 L572.094,9.649 L572.094,18.719 L563.483,18.719 L563.483,27.265 C563.483,28.754 563.011,29.740 562.070,30.222 C561.259,30.617 559.583,30.814 557.041,30.814 L556.154,28.743 C558.586,28.743 560.086,28.656 560.656,28.481 ZM570.122,16.715 L570.122,11.653 L553.393,11.653 L553.393,16.715 L570.122,16.715 Z"/>
</svg>