<svg 
 xmlns="http://www.w3.org/2000/svg"
 xmlns:xlink="http://www.w3.org/1999/xlink"
 width="512px" height="35px">
<path fill-rule="evenodd"  fill="rgb(0, 0, 0)"
 d="M511.795,26.662 L511.795,28.624 L495.213,28.624 L495.213,26.662 L502.866,26.662 L502.866,12.761 L496.423,12.761 L496.423,10.799 L502.866,10.799 L502.866,0.398 L504.894,0.398 L504.894,10.799 L511.010,10.799 L511.010,12.761 L504.894,12.761 L504.894,26.662 L511.795,26.662 ZM496.161,17.406 L495.147,19.041 C494.362,18.431 493.588,17.733 492.825,16.948 C492.192,16.272 491.593,15.574 491.026,14.854 L491.026,29.835 L489.129,29.835 L489.129,16.326 C488.344,17.090 487.417,17.853 486.349,18.616 C485.411,19.292 484.386,19.946 483.274,20.578 L482.326,18.681 C483.220,18.267 484.201,17.711 485.270,17.013 C486.468,16.250 487.592,15.411 488.638,14.495 C489.837,13.448 490.851,12.391 491.680,11.322 C492.639,10.101 493.316,8.913 493.708,7.757 L483.896,7.757 L483.896,5.860 L489.129,5.860 L489.129,0.398 L491.026,0.398 L491.026,5.860 L495.769,5.860 L495.769,7.691 L495.540,8.280 C495.321,8.782 495.093,9.273 494.853,9.752 C494.504,10.450 494.133,11.104 493.741,11.715 C493.239,12.478 492.727,13.143 492.204,13.710 C492.618,14.255 493.097,14.800 493.643,15.345 C494.406,16.086 495.245,16.773 496.161,17.406 ZM478.082,27.806 L477.002,29.802 C475.519,29.496 474.222,29.148 473.110,28.755 C471.845,28.297 470.690,27.752 469.643,27.120 C467.354,25.681 465.315,23.544 463.527,20.709 C462.327,23.064 460.692,24.950 458.621,26.368 C456.527,27.806 453.671,28.951 450.051,29.802 L448.776,27.839 C452.286,27.251 455.186,26.226 457.476,24.765 C459.547,23.435 461.008,21.843 461.859,19.990 L448.939,19.990 L448.939,18.027 L453.028,18.027 L453.028,10.079 L462.447,10.079 L462.447,7.299 L464.475,7.299 L464.475,10.079 L473.928,10.079 L473.928,18.027 L477.820,18.027 L477.820,19.990 L465.130,19.990 C466.459,22.170 468.117,23.871 470.101,25.092 C472.194,26.379 474.854,27.283 478.082,27.806 ZM462.447,11.976 L455.056,11.976 L455.056,18.027 L462.317,18.027 C462.404,17.591 462.447,17.155 462.447,16.719 L462.447,11.976 ZM471.900,18.027 L471.900,11.976 L464.475,11.976 L464.475,16.719 C464.475,17.090 464.443,17.526 464.377,18.027 L471.900,18.027 ZM469.578,8.149 L467.615,8.149 L467.615,5.075 L459.111,5.075 L459.111,8.149 L457.149,8.149 L457.149,5.075 L449.299,5.075 L449.299,3.178 L457.149,3.178 L457.149,0.398 L459.111,0.398 L459.111,3.178 L467.615,3.178 L467.615,0.398 L469.578,0.398 L469.578,3.178 L477.428,3.178 L477.428,5.075 L469.578,5.075 L469.578,8.149 ZM443.406,27.120 L442.294,28.984 C437.714,27.349 433.659,24.797 430.126,21.330 L429.668,21.330 L429.668,29.835 L427.739,29.835 L427.739,21.330 L427.281,21.330 C426.627,22.116 425.961,22.814 425.286,23.424 C424.522,24.143 423.694,24.797 422.800,25.386 C420.794,26.717 418.221,27.916 415.081,28.984 L414.002,27.120 C415.419,26.749 416.749,26.313 417.992,25.811 C419.125,25.354 420.172,24.852 421.132,24.307 C421.982,23.828 422.767,23.326 423.487,22.802 C424.097,22.323 424.653,21.832 425.155,21.330 L414.754,21.330 L414.754,19.532 L427.739,19.532 L427.739,17.209 L418.679,17.209 L418.679,7.626 C417.523,8.847 416.269,9.927 414.917,10.864 L414.034,9.098 C415.146,8.378 416.214,7.484 417.240,6.416 C418.046,5.544 418.798,4.584 419.496,3.538 C420.020,2.797 420.478,2.044 420.870,1.281 C421.175,0.714 421.328,0.409 421.328,0.365 L423.127,0.921 C423.127,0.965 423.029,1.183 422.833,1.575 C422.723,1.837 422.604,2.098 422.473,2.360 C422.298,2.687 422.113,3.014 421.917,3.341 L429.243,3.341 C429.788,2.666 430.246,1.968 430.617,1.248 L431.010,0.365 L432.808,0.921 C432.808,0.965 432.710,1.205 432.514,1.641 L432.089,2.393 C431.914,2.720 431.729,3.036 431.533,3.341 L441.182,3.341 L441.182,5.042 L430.846,5.042 L430.846,7.528 L439.939,7.528 L439.939,9.000 L430.846,9.000 L430.846,11.584 L439.939,11.584 L439.939,13.056 L430.846,13.056 L430.846,15.574 L441.443,15.574 L441.443,17.209 L429.668,17.209 L429.668,19.532 L442.621,19.532 L442.621,21.330 L432.449,21.330 C433.931,22.661 435.469,23.762 437.061,24.634 C438.870,25.615 440.985,26.444 443.406,27.120 ZM428.884,5.042 L420.641,5.042 L420.641,7.528 L428.884,7.528 L428.884,5.042 ZM428.884,9.000 L420.641,9.000 L420.641,11.584 L428.884,11.584 L428.884,9.000 ZM428.884,13.056 L420.641,13.056 L420.641,15.574 L428.884,15.574 L428.884,13.056 ZM399.721,28.828 L408.944,4.102 L411.029,4.102 L401.806,28.828 L399.721,28.828 ZM395.245,26.654 L393.348,28.322 C392.214,26.949 390.611,25.412 388.540,23.711 C387.667,22.991 386.729,22.250 385.727,21.487 C384.832,20.832 383.917,20.178 382.979,19.524 C381.409,21.312 379.643,22.970 377.681,24.496 C375.609,26.088 373.287,27.559 370.714,28.911 L368.817,27.243 C371.172,26.284 373.439,25.008 375.620,23.416 C377.691,21.934 379.610,20.233 381.377,18.314 C384.865,14.542 387.264,10.628 388.572,6.572 L381.050,6.572 C379.893,6.572 378.814,6.583 377.811,6.605 C375.434,6.627 373.515,6.670 372.055,6.735 L372.055,4.609 C373.515,4.653 374.976,4.686 376.438,4.708 C378.247,4.729 379.948,4.740 381.540,4.740 C383.197,4.740 384.636,4.729 385.857,4.708 C387.362,4.686 388.638,4.642 389.684,4.577 L391.254,5.754 C390.251,8.175 389.204,10.345 388.114,12.263 C386.915,14.400 385.607,16.352 384.189,18.118 C386.021,19.295 387.885,20.604 389.782,22.043 C391.810,23.613 393.631,25.150 395.245,26.654 ZM358.140,29.794 L355.818,29.827 C355.861,28.148 355.894,26.284 355.916,24.234 C355.937,22.402 355.948,20.418 355.948,18.281 L355.948,15.305 C355.948,14.193 355.937,13.212 355.916,12.361 C353.997,13.735 351.969,15.065 349.832,16.352 C347.804,17.551 345.656,18.728 343.389,19.884 L341.721,18.085 C345.711,16.428 349.974,14.018 354.509,10.857 C356.733,9.308 358.707,7.771 360.429,6.245 C362.261,4.631 363.678,3.138 364.681,1.764 L366.709,3.072 C364.136,5.776 361.280,8.317 358.140,10.693 C357.965,17.017 357.965,23.384 358.140,29.794 ZM339.725,1.241 L340.903,0.259 C342.276,1.306 343.432,2.331 344.370,3.334 L343.192,4.413 C342.189,3.301 341.033,2.244 339.725,1.241 ZM339.758,5.165 C338.842,4.119 337.719,3.029 336.389,1.895 L337.501,0.913 C338.722,1.873 339.877,2.931 340.968,4.086 L339.758,5.165 ZM341.393,7.259 C339.038,13.757 336.105,18.674 332.595,22.010 C329.128,25.325 324.167,27.963 317.713,29.925 L316.077,28.028 C322.488,26.720 327.721,24.038 331.777,19.982 C330.665,19.023 329.444,18.085 328.114,17.169 C326.914,16.341 325.650,15.545 324.320,14.781 L325.759,13.408 C327.111,14.193 328.343,14.945 329.455,15.665 C330.829,16.559 332.093,17.453 333.249,18.347 C335.735,15.425 337.599,11.980 338.842,8.011 L328.768,8.076 L325.007,8.142 C323.916,9.646 322.750,11.053 321.507,12.361 C320.155,13.779 318.705,15.076 317.157,16.253 L315.456,14.749 C316.851,13.833 318.149,12.830 319.348,11.740 C320.438,10.737 321.442,9.646 322.357,8.469 C323.186,7.444 323.960,6.332 324.680,5.133 C325.290,4.108 325.878,2.985 326.446,1.764 L328.604,2.320 C327.841,3.738 327.067,5.067 326.282,6.310 L333.347,6.343 C334.153,6.321 334.906,6.310 335.604,6.310 C337.239,6.267 338.678,6.212 339.921,6.147 L341.393,7.259 ZM304.096,13.898 L307.989,13.898 L307.989,17.889 L304.096,17.889 L304.096,13.898 ZM290.854,10.170 L291.083,21.650 C291.126,22.566 291.159,23.526 291.181,24.528 L291.181,25.248 C291.181,26.709 290.865,27.734 290.232,28.322 C289.404,29.063 287.812,29.467 285.457,29.533 L284.476,27.047 C285.326,27.178 286.046,27.243 286.635,27.243 C288.270,27.243 289.088,26.491 289.088,24.986 L288.891,10.170 L287.714,10.170 C286.209,13.354 284.290,16.253 281.958,18.870 C279.472,21.683 276.571,24.092 273.257,26.098 L271.229,24.627 C272.843,23.798 274.402,22.806 275.906,21.650 C277.346,20.560 278.687,19.350 279.930,18.019 C282.350,15.468 284.170,12.852 285.392,10.170 L277.967,10.235 C275.481,10.279 273.432,10.322 271.818,10.366 L271.818,8.338 C273.759,8.382 275.841,8.415 278.065,8.436 L288.859,8.469 C288.837,7.379 288.804,6.234 288.761,5.035 C288.739,4.098 288.695,3.105 288.630,2.058 L290.788,2.091 L290.788,5.035 C290.788,6.256 290.799,7.401 290.821,8.469 C291.715,8.469 292.424,8.458 292.947,8.436 C293.710,8.436 294.386,8.426 294.975,8.403 L298.540,8.338 L298.540,10.301 C297.363,10.257 296.207,10.224 295.073,10.202 C293.634,10.181 292.228,10.170 290.854,10.170 ZM243.260,28.977 L242.278,26.720 C245.309,26.393 248.133,25.771 250.750,24.855 C253.235,23.962 255.503,22.806 257.553,21.388 C259.515,20.037 261.270,18.456 262.819,16.646 C264.279,14.945 265.555,13.037 266.645,10.922 L268.052,12.819 C265.305,17.355 262.077,20.854 258.370,23.318 C254.489,25.913 249.452,27.799 243.260,28.977 ZM263.080,2.320 L264.258,1.339 C265.631,2.385 266.787,3.411 267.725,4.413 L266.547,5.493 C265.544,4.381 264.389,3.323 263.080,2.320 ZM264.258,7.324 C263.342,6.278 262.219,5.187 260.889,4.053 L262.001,3.072 C263.222,4.032 264.377,5.089 265.468,6.245 L264.258,7.324 ZM244.928,4.544 L246.171,2.941 C248.765,3.945 251.120,5.035 253.235,6.212 L251.862,7.946 C249.572,6.506 247.261,5.373 244.928,4.544 ZM248.198,15.534 C245.887,14.160 243.619,13.037 241.395,12.165 L242.409,10.529 C244.851,11.489 247.195,12.569 249.441,13.767 L248.198,15.534 ZM216.857,29.925 L215.222,28.028 C221.632,26.720 226.865,24.038 230.921,19.982 C229.809,19.023 228.588,18.085 227.258,17.169 C226.058,16.341 224.794,15.545 223.464,14.781 L224.903,13.408 C226.255,14.193 227.487,14.945 228.599,15.665 C229.973,16.559 231.237,17.453 232.393,18.347 C234.879,15.425 236.743,11.980 237.986,8.011 L227.912,8.076 L224.151,8.142 C223.060,9.646 221.894,11.053 220.651,12.361 C219.299,13.779 217.849,15.076 216.301,16.253 L214.600,14.749 C215.995,13.833 217.293,12.830 218.492,11.740 C219.582,10.737 220.585,9.646 221.501,8.469 C222.330,7.444 223.104,6.332 223.824,5.133 C224.434,4.108 225.023,2.985 225.590,1.764 L227.749,2.320 C226.985,3.738 226.211,5.067 225.426,6.310 L232.491,6.343 C233.298,6.321 234.050,6.310 234.748,6.310 C236.383,6.267 237.822,6.212 239.065,6.147 L240.537,7.259 C238.182,13.757 235.249,18.674 231.739,22.010 C228.272,25.325 223.311,27.963 216.857,29.925 ZM212.467,26.654 L210.570,28.322 C209.436,26.949 207.833,25.412 205.762,23.711 C204.890,22.991 203.952,22.250 202.949,21.487 C202.055,20.832 201.139,20.178 200.202,19.524 C198.632,21.312 196.865,22.970 194.903,24.496 C192.831,26.088 190.509,27.559 187.936,28.911 L186.039,27.243 C188.394,26.284 190.662,25.008 192.842,23.416 C194.914,21.934 196.833,20.233 198.599,18.314 C202.087,14.542 204.486,10.628 205.795,6.572 L198.272,6.572 C197.116,6.572 196.036,6.583 195.034,6.605 C192.657,6.627 190.738,6.670 189.277,6.735 L189.277,4.609 C190.738,4.653 192.199,4.686 193.660,4.708 C195.470,4.729 197.171,4.740 198.763,4.740 C200.419,4.740 201.858,4.729 203.080,4.708 C204.584,4.686 205.860,4.642 206.907,4.577 L208.477,5.754 C207.473,8.175 206.427,10.345 205.337,12.263 C204.137,14.400 202.829,16.352 201.412,18.118 C203.243,19.295 205.108,20.604 207.005,22.043 C209.033,23.613 210.853,25.150 212.467,26.654 ZM149.714,17.093 C149.007,17.932 148.257,18.748 147.463,19.542 L153.454,19.542 L153.454,16.398 L155.440,16.398 L155.440,19.542 L165.171,19.542 L165.171,23.481 C165.171,26.262 164.796,27.961 164.046,28.579 C163.648,28.910 163.020,29.120 162.159,29.207 C161.783,29.252 161.309,29.285 160.736,29.307 L158.783,29.307 L158.055,27.221 L160.140,27.221 C161.596,27.221 162.468,27.056 162.755,26.725 C163.041,26.439 163.185,25.556 163.185,24.077 L163.185,21.462 L155.440,21.462 L155.440,31.855 L153.454,31.855 L153.454,21.462 L146.536,21.462 L146.536,29.539 L144.550,29.539 L144.550,22.190 L143.491,23.051 C143.115,23.382 142.751,23.669 142.398,23.912 C141.560,24.573 140.765,25.148 140.015,25.633 L138.923,23.713 C140.975,22.544 142.928,21.131 144.782,19.476 C146.414,18.020 147.871,16.476 149.151,14.842 L139.684,14.842 L139.684,12.922 L150.541,12.922 C150.960,12.349 151.335,11.731 151.667,11.069 C151.909,10.562 152.031,10.275 152.031,10.208 L153.983,10.605 L152.692,12.922 L167.885,12.922 L167.885,14.842 L151.435,14.842 C150.905,15.593 150.331,16.343 149.714,17.093 ZM164.112,11.863 C163.008,11.224 161.640,10.539 160.007,9.811 C158.595,9.172 157.073,8.532 155.440,7.891 C153.409,8.730 151.346,9.425 149.250,9.977 C146.889,10.595 144.462,11.058 141.968,11.367 L140.876,9.546 C146.039,8.973 150.132,8.090 153.156,6.898 C152.118,6.479 150.971,6.060 149.714,5.641 C148.698,5.310 147.639,4.979 146.536,4.648 C145.763,4.405 145.002,4.184 144.252,3.986 L143.358,3.754 L144.749,2.132 L148.191,3.291 C149.382,3.688 150.530,4.085 151.633,4.482 L155.374,5.839 C156.477,5.420 157.525,4.968 158.518,4.482 C159.312,4.107 160.051,3.721 160.736,3.324 C161.927,2.640 162.523,2.254 162.523,2.165 L164.443,3.324 C164.443,3.368 163.792,3.743 162.490,4.449 C161.783,4.846 161.055,5.233 160.305,5.608 C159.356,6.049 158.407,6.468 157.459,6.865 C160.459,7.836 163.163,8.962 165.568,10.241 L164.112,11.863 ZM132.270,26.957 L124.624,26.957 L124.624,29.141 L122.605,29.141 L122.605,5.773 L134.289,5.773 L134.289,29.141 L132.270,29.141 L132.270,26.957 ZM132.270,7.693 L124.624,7.693 L124.624,25.037 L132.270,25.037 L132.270,7.693 ZM120.718,20.370 L119.758,22.654 C118.721,21.286 117.827,19.995 117.077,18.781 C116.746,18.252 116.404,17.678 116.051,17.060 C115.764,16.553 115.433,15.935 115.058,15.206 L115.058,31.855 L113.072,31.855 L113.072,15.504 C111.925,18.969 109.850,22.389 106.850,25.765 L105.824,23.614 C108.692,20.789 110.987,17.237 112.708,12.956 L106.585,12.956 L106.585,11.102 L113.072,11.102 L113.072,5.541 C112.079,5.652 111.053,5.740 109.994,5.806 C109.155,5.851 108.306,5.872 107.445,5.872 L106.750,4.019 C107.831,4.019 108.869,3.997 109.862,3.953 C111.053,3.886 112.156,3.787 113.172,3.655 C114.341,3.500 115.400,3.302 116.349,3.059 C117.386,2.794 118.280,2.485 119.030,2.132 L120.122,3.953 C118.688,4.504 117.000,4.946 115.058,5.277 L115.058,11.102 L120.685,11.102 L120.685,12.956 L115.191,12.956 C116.095,14.500 116.978,15.847 117.839,16.994 C118.589,17.987 119.549,19.112 120.718,20.370 ZM99.767,12.426 C100.076,12.647 100.396,12.856 100.727,13.055 C100.991,13.232 101.256,13.397 101.521,13.551 L102.249,13.949 L101.124,15.504 L100.760,15.273 C100.450,15.096 100.142,14.898 99.833,14.677 L98.608,13.750 C98.123,13.375 97.692,12.989 97.317,12.591 L97.317,16.729 L87.520,16.729 L87.520,12.757 C86.306,13.949 85.015,14.942 83.647,15.736 L82.787,14.081 C85.589,12.514 87.729,10.804 89.208,8.951 L83.316,8.951 L83.316,7.229 L90.035,7.229 C90.278,6.921 90.499,6.534 90.698,6.071 C90.830,5.784 90.984,5.376 91.161,4.846 L90.598,4.879 C90.377,4.879 90.168,4.891 89.969,4.912 C89.484,4.935 89.031,4.946 88.612,4.946 C87.487,4.990 86.472,5.012 85.567,5.012 L84.872,3.291 L85.997,3.291 C87.630,3.291 89.153,3.257 90.565,3.191 C91.845,3.125 93.025,3.037 94.107,2.926 C95.982,2.728 97.549,2.452 98.807,2.099 L99.965,3.622 L97.913,4.052 C97.185,4.184 96.468,4.306 95.762,4.416 C94.857,4.548 93.985,4.648 93.147,4.714 C93.125,4.802 93.081,4.924 93.014,5.078 L92.882,5.409 C92.794,5.674 92.705,5.895 92.617,6.071 C92.419,6.534 92.231,6.921 92.055,7.229 L101.786,7.229 L101.786,8.951 L95.398,8.951 C95.971,9.546 96.677,10.175 97.516,10.837 C98.200,11.367 98.950,11.897 99.767,12.426 ZM89.506,15.239 L95.331,15.239 L95.331,12.856 L89.506,12.856 L89.506,15.239 ZM93.610,8.951 L91.095,8.951 C90.609,9.723 89.914,10.529 89.009,11.367 L95.861,11.367 C95.221,10.793 94.471,9.988 93.610,8.951 ZM81.396,13.485 C81.882,14.324 82.433,15.162 83.052,16.001 L81.893,17.921 C81.385,16.928 80.933,15.924 80.536,14.908 L79.444,11.863 L79.444,31.855 L77.458,31.855 L77.458,12.691 C76.950,15.008 76.409,17.016 75.836,18.715 C75.306,20.216 74.622,21.849 73.784,23.614 L72.460,21.694 C73.298,20.414 74.159,18.649 75.041,16.398 C75.814,14.390 76.498,12.272 77.094,10.043 L73.651,10.043 L73.651,8.189 L77.458,8.189 L77.458,2.066 L79.444,2.066 L79.444,8.189 L82.522,8.189 L82.522,10.043 L79.708,10.043 C80.260,11.345 80.823,12.492 81.396,13.485 ZM40.155,4.350 L53.262,4.350 L53.262,2.066 L55.248,2.066 L55.248,4.350 L68.355,4.350 L68.355,6.236 L40.155,6.236 L40.155,4.350 ZM16.597,34.130 C12.138,34.130 8.342,32.549 5.209,29.385 C2.046,26.253 0.465,22.457 0.465,17.998 C0.465,13.540 2.046,9.744 5.209,6.610 C8.342,3.447 12.138,1.866 16.597,1.866 C21.055,1.866 24.866,3.447 28.030,6.610 C31.193,9.744 32.774,13.540 32.774,17.998 C32.774,22.457 31.193,26.253 28.030,29.385 C24.866,32.549 21.055,34.130 16.597,34.130 ZM26.719,7.921 C23.947,5.119 20.588,3.718 16.642,3.718 C12.725,3.718 9.367,5.119 6.565,7.921 C3.763,10.693 2.362,14.052 2.362,17.998 C2.362,21.914 3.763,25.273 6.565,28.075 C9.367,30.877 12.725,32.278 16.642,32.278 C20.588,32.278 23.947,30.877 26.719,28.075 C29.521,25.273 30.922,21.914 30.922,17.998 C30.922,14.052 29.521,10.693 26.719,7.921 ZM17.140,26.961 C20.113,26.961 22.298,25.817 23.696,23.530 L24.733,25.602 C22.903,27.933 20.297,29.099 16.913,29.099 C14.056,29.099 11.687,28.196 9.807,26.392 C7.752,24.437 6.724,21.743 6.724,18.309 C6.724,14.925 7.739,12.243 9.770,10.263 C11.649,8.458 14.030,7.556 16.913,7.556 C20.297,7.556 22.865,8.684 24.620,10.940 L23.582,13.125 C22.158,10.837 20.011,9.694 17.140,9.694 C15.056,9.694 13.277,10.380 11.803,11.752 C10.101,13.328 9.250,15.513 9.250,18.308 C9.250,21.078 10.088,23.264 11.765,24.865 C13.239,26.262 15.030,26.961 17.140,26.961 ZM63.920,8.686 L63.920,14.611 L44.490,14.611 L44.490,8.686 L63.920,8.686 ZM46.476,12.823 L61.934,12.823 L61.934,10.473 L46.476,10.473 L46.476,12.823 ZM67.859,27.917 C67.859,29.395 67.462,30.421 66.667,30.995 C65.851,31.546 64.394,31.822 62.298,31.822 L61.404,29.803 L62.133,29.803 C63.743,29.803 64.791,29.671 65.277,29.406 C65.674,29.164 65.873,28.667 65.873,27.917 L65.873,19.046 L42.670,19.046 L42.670,31.855 L40.684,31.855 L40.684,17.126 L67.859,17.126 L67.859,27.917 ZM61.007,27.983 L47.370,27.983 L47.370,21.595 L61.007,21.595 L61.007,27.983 ZM59.021,23.382 L49.356,23.382 L49.356,26.195 L59.021,26.195 L59.021,23.382 ZM101.091,27.950 C101.091,29.539 100.870,30.575 100.429,31.061 C99.921,31.591 98.807,31.855 97.086,31.855 L96.225,29.969 C97.637,29.969 98.465,29.880 98.707,29.704 C98.972,29.549 99.105,29.009 99.105,28.082 L99.105,20.602 L86.262,20.602 L86.262,31.855 L84.276,31.855 L84.276,18.881 L101.091,18.881 L101.091,27.950 ZM96.887,28.545 L88.546,28.545 L88.546,22.753 L96.887,22.753 L96.887,28.545 ZM94.901,24.243 L90.532,24.243 L90.532,27.056 L94.901,27.056 L94.901,24.243 Z"/>
</svg>